<svg xmlns="http://www.w3.org/2000/svg" version="1.1" xmlns:xlink="http://www.w3.org/1999/xlink" xmlns:svgjs="http://svgjs.dev/svgjs" width="2000" height="1500" viewBox="0 0 2000 1500"><rect width="2000" height="1500" fill="#af6834"></rect><g transform="matrix(0.4444444444444444,0,0,0.4444444444444444,555.5556208333335,250)"><svg viewBox="0 0 320 360" data-background-color="#af6834" preserveAspectRatio="xMidYMid meet" height="2250" width="2000" xmlns="http://www.w3.org/2000/svg" xmlns:xlink="http://www.w3.org/1999/xlink"><g id="tight-bounds" transform="matrix(1,0,0,1,0.000023499999997511622,0)"><svg viewBox="0 0 320 360" height="360" width="320"><g><svg></svg></g><g><svg viewBox="0 0 320 360" height="360" width="320"><g><path transform="translate(-74.99272,-51.79039) scale(4.65793,4.65793)" d="M20.6 59.9l0.8 1-0.4-1.3c-0.1-0.6-0.8 0.1-0.4 0.3M21.5 59.3c0.3 0.5 0.6 1 0.6 1.5 0 0.7 0.6 1 1.1 1.2-0.7-0.8-1.1-3-1.7-2.7M59.9 16.9c1.7 0 3.3-0.2 5.1 0.2 4.4 1.1 8.1 3.3 10.6 6.4l7 11.2c0.3 2.8 0.9 5.9 0.8 9.3 0.7 0 0.6-1 1.4-1.2-0.8 2-1.2 4.5-1.4 7.4-0.5-1.6 0-4 0.1-5.3-0.7 1.1-1.1 0.3-1.1-0.2 0.1-0.8-0.3-0.7-0.6-1-1.1-1-1.8-2.1-2.6-3.8 0.5-1.3 0.6-3.2-1-4.2-0.5-0.3-1.1-0.8-1.4-1.6-0.4-1.1-1.1-2.4-0.9-4.1 0.1-0.5-1.5 1.1-2.4 0.4-3.9-2.7-7.8-5.8-12.5-8.4-2.5 0-4.3-0.9-5.2-2-0.8-1-0.2-2.3 1-2.4 0.7 0 1.5-0.2 2.1 0.2 0.1-0.4 0.5-0.9 1-0.9M50 14.6l0.2 0.1c1 0.2 1.5 1.6 2.6 1.1 0 0.7 0.1 1.4-0.1 1.9-0.3 0.8-1.2 0.8-1.9 0.8-6.7-0.4-10.6 2.4-14.7 4.8-1.1 0.7-2.3 1.2-3.2 2.1-4.3 4-9 7.7-10.1 15.1l-0.9 8.2c-0.1 0.9-1.1 1.8-0.9 2.9l0.7 4.9c-0.7-0.7-1.1 0.2-0.9 0.6 0.1 0.3 0.5 1.3 1.1 0.4 0.8 1.5 1.6 4.4 2.7 5.7 3.4 4 7.8 7.6 11.4 11.2 0.9-0.2 1.6-0.2 1.8-0.8 0.3 0.6-0.3 1.2-0.8 1.3 1.6 1 3.4 1.9 5.8 2.1 3.1 0.2 6 0.7 8.7 1.4 1.4-0.4 2.8-0.6 4.3-0.7 0.5 0 0.8-0.8 1.4-1l0.1-1c0.6 0.9 0.5-0.3 0.1-0.9 0.7 0.6 0.9 1.1 1.2 1.5 0-0.3 0.8-1.4 0.8-0.1l0.2-1.3c0.3-0.2 0.4 1.1 0.7 0.2 0.3-0.9 0.9-0.2 1.5-0.5-0.2 0.4-0.1 1.2 0.6 0.7l0.8-0.7c0.5 1.2 1.3 0.7 1.7 0.5 4.4-2.8 8.8-6.1 13-9.4l-0.1 1.3 0.5-1.6c0.5 0.5 0.9 0.1 1.1-0.2 0.6-1 1.4-2 2.7-2.9-1.6 4.3-3.5 7.7-5.9 10.5l-1 1.2c0 0.7-0.2 1.6-1 1.7-0.4 0.1-1.2-0.2-1.8 0.4-0.3 0.4 0.7 1.2-0.1 0.6-0.7-0.5-1.4 0-2.2 0.2-0.6 0.2 0.4 0.8 0.6 1.2 0.2 0.4 0.4 0.8 0.3 1.3l-1.1-1.2c-1.3 0.7-2.1 2-3.2 3-0.5 0.4-0.3 1.1-0.3 1.7-0.7 0-1.5-0.2-1.9 0.2-0.3 0.4-0.2 1-0.2 1.6-1-0.1-1.1-1.6-2-1.3-0.9 0.2-1.9 0.3-2.7 0.8 0.6 1.2-1 0.5-0.8 0.7-1.5-0.9-2.8-1.6-4.4-1-3.4-1.1-7.6-0.6-10.7-0.2 0-0.5 0.1-1-0.1-1.1-0.2 0.5-0.8 0.3-0.7 0.3-1.9-1.3-3.8-2.1-5.8-3.2-1.8 0.2-3.5-0.7-4-1.2-1.4-1.3-3-0.6-4.3-0.9-2.8-0.7-3.8-3.6-4.1-5.6-0.2-1-1-1.4-1.3-1.3-1.3-4.2-3.3-8-4.9-11.9-0.4-1-0.3-2-0.3-3.1 0.5 0.2 1 0.1 0.9-0.6-0.5-3.3-1.7-5.8-3-8.2 0.7-3.4 0.8-7.4 2.4-10.4 1.4-2.7 4-4.1 5.8-6.4 0.6-0.8 0.6-1.9 1.2-2.6 2-2 4-4.1 6.2-5.9 1-0.8 2.2 0 3.7-0.3 0.5-1.8 2.5-3.4 4.4-2.9 0.8 0.2 2.4-1.9 2.9-2.1 0.8-0.3 0.4 0.8 0.4 1.5 1.9-1.5 4.5-2.3 6.9-3.2" fill="#ffffff" fill-rule="nonzero" stroke="none" stroke-width="1" stroke-linecap="butt" stroke-linejoin="miter" stroke-miterlimit="10" stroke-dasharray="" stroke-dashoffset="0" font-family="none" font-weight="none" font-size="none" text-anchor="none" style="mix-blend-mode: normal" data-fill-palette-color="tertiary"></path></g><g transform="matrix(1,0,0,1,64,102.50305539974127)"><svg viewBox="0 0 192 154.99388920051746" height="154.99388920051746" width="192"><g><svg viewBox="0 0 192 154.99388920051746" height="154.99388920051746" width="192"><g transform="matrix(1,0,0,1,0,116.24615310737387)"><svg viewBox="0 0 192 38.747736093143594" height="38.747736093143594" width="192"><g id="textblocktransform"><svg viewBox="0 0 192 38.747736093143594" height="38.747736093143594" width="192" id="textblock"><g><svg viewBox="0 0 192 38.747736093143594" height="38.747736093143594" width="192"><g transform="matrix(1,0,0,1,0,0)"><svg width="192" viewBox="1.88 -21.25 107.35000000000001 21.67" height="38.747736093143594" data-palette-color="#ffffff"><path d="M13.26 0.42L13.26 0.42Q10 0.42 7.41-1.04 4.83-2.5 3.35-5.02 1.88-7.53 1.88-10.63L1.88-10.63Q1.88-13.58 3.3-15.99 4.72-18.4 7.14-19.83 9.55-21.25 12.47-21.25L12.47-21.25Q15.35-21.25 17.74-19.88 20.14-18.51 21.56-16.18 22.99-13.85 22.99-10.9L22.99-10.9 22.99-9.38 9.38-9.38Q8.47-9.38 7.53-9.44 6.6-9.51 5.69-9.65L5.69-9.65Q6.08-6.88 8.21-5 10.35-3.13 13.3-3.13L13.3-3.13Q15.28-3.13 16.98-4.03 18.68-4.93 19.72-6.42L19.72-6.42 20.76-2.15Q19.27-0.94 17.34-0.26 15.42 0.42 13.26 0.42ZM5.59-12.19L5.59-12.19Q7.47-12.5 9.38-12.5L9.38-12.5 16.28-12.5Q17.05-12.5 17.8-12.45 18.54-12.4 19.31-12.33L19.31-12.33Q18.82-14.76 16.88-16.34 14.93-17.92 12.47-17.92L12.47-17.92Q9.93-17.92 8.02-16.23 6.11-14.55 5.59-12.19ZM31.73 0L27.98 0 27.98-20.83 31.46-20.83 31.46-17.85Q32.6-19.55 34.36-20.4 36.11-21.25 38.05-21.25L38.05-21.25Q40.17-21.25 41.94-20.26 43.71-19.27 44.79-17.5L44.79-17.5Q46-19.38 47.93-20.31 49.86-21.25 52.01-21.25L52.01-21.25Q54.37-21.25 56.33-20.14 58.3-19.03 59.46-17.03 60.62-15.03 60.62-12.33L60.62-12.33 60.62 0 56.87 0 56.87-11.88Q56.87-14.72 55.26-16.2 53.64-17.67 51.53-17.67L51.53-17.67Q50.21-17.67 48.97-17.08 47.74-16.49 46.96-15.24 46.18-13.99 46.18-11.98L46.18-11.98 46.18 0 42.43 0 42.43-11.88Q42.43-13.85 41.65-15.14 40.87-16.42 39.63-17.07 38.4-17.71 37.08-17.71L37.08-17.71Q35.8-17.71 34.56-17.12 33.33-16.53 32.53-15.28 31.73-14.03 31.73-11.98L31.73-11.98 31.73 0ZM76.45 0.42L76.45 0.42Q73.4 0.42 70.9-1.04 68.4-2.5 66.9-4.97 65.41-7.43 65.41-10.42L65.41-10.42Q65.41-13.4 66.9-15.87 68.4-18.33 70.9-19.79 73.4-21.25 76.45-21.25L76.45-21.25Q78.71-21.25 80.69-20.45 82.67-19.65 84.16-18.33L84.16-18.33 83.02-13.61Q82.15-15.35 80.39-16.53 78.64-17.71 76.42-17.71L76.42-17.71Q74.4-17.71 72.76-16.72 71.11-15.73 70.13-14.08 69.16-12.43 69.16-10.42L69.16-10.42Q69.16-8.44 70.13-6.77 71.11-5.1 72.76-4.11 74.4-3.13 76.42-3.13L76.42-3.13Q78.64-3.13 80.39-4.27 82.15-5.42 83.02-7.22L83.02-7.22 84.16-2.5Q82.67-1.18 80.69-0.38 78.71 0.42 76.45 0.42ZM98.26 0.42L98.26 0.42Q95.24 0.42 92.74-1.04 90.24-2.5 88.76-4.97 87.28-7.43 87.28-10.42L87.28-10.42Q87.28-13.44 88.76-15.89 90.24-18.33 92.74-19.79 95.24-21.25 98.26-21.25L98.26-21.25Q101.31-21.25 103.79-19.79 106.28-18.33 107.75-15.89 109.23-13.44 109.23-10.42L109.23-10.42Q109.23-7.43 107.75-4.97 106.28-2.5 103.79-1.04 101.31 0.42 98.26 0.42ZM98.26-3.13L98.26-3.13Q100.27-3.13 101.9-4.11 103.53-5.1 104.51-6.75 105.48-8.4 105.48-10.42L105.48-10.42Q105.48-12.43 104.51-14.08 103.53-15.73 101.9-16.72 100.27-17.71 98.26-17.71L98.26-17.71Q96.24-17.71 94.61-16.72 92.98-15.73 92.01-14.08 91.03-12.43 91.03-10.42L91.03-10.42Q91.03-8.4 92.01-6.75 92.98-5.1 94.61-4.11 96.24-3.13 98.26-3.13Z" opacity="1" transform="matrix(1,0,0,1,0,0)" fill="#ffffff" class="wordmark-text-0" data-fill-palette-color="primary" id="text-0"></path></svg></g></svg></g></svg></g></svg></g><g transform="matrix(1,0,0,1,70.54293697495316,0)"><svg viewBox="0 0 50.91412605009366 107.0987425614489" height="107.0987425614489" width="50.91412605009366"><g><svg xmlns="http://www.w3.org/2000/svg" xmlns:xlink="http://www.w3.org/1999/xlink" version="1.1" x="0" y="0" viewBox="29.002999999999997 5.833000000000001 41.992999999999995 88.333" style="enable-background:new 0 0 100 100;" xml:space="preserve" height="107.0987425614489" width="50.91412605009366" class="icon-icon-0" data-fill-palette-color="accent" id="icon-0"><path d="M30.612 63.614c-0.791 3.597-1.608 7.317-1.608 14.092 0 0.024 0.001 0.047 0.002 0.071 0.032 7.907 5.596 16.389 17.771 16.389 1.196 0 2.387-0.119 3.495-0.346 0.025-0.003 0.079-0.012 0.104-0.018 0.142-0.029 0.278-0.066 0.416-0.104l0.194-0.052c4.76-1.153 8.879-4.261 11.261-8.459C70.75 72.674 70.996 52.284 70.996 50c0-2.282-0.245-22.638-8.727-35.156-2.427-4.248-6.537-7.341-11.279-8.49l-0.199-0.053c-0.137-0.038-0.274-0.074-0.476-0.114-1.151-0.234-2.342-0.354-3.539-0.354-12.196 0-17.759 8.512-17.771 16.431-0.001 0.021-0.002 0.042-0.002 0.063 0 6.74 0.817 10.459 1.607 14.056 0.133 0.607 0.267 1.214 0.396 1.836 0.7 3.352 1.166 6.637 1.166 11.78s-0.466 8.429-1.166 11.78C30.879 62.401 30.746 63.008 30.612 63.614zM31.004 22.364c0.001-0.024 0.002-0.048 0.002-0.073 0-9.933 8.175-14.458 15.771-14.458 1.062 0 2.119 0.105 3.191 0.322 0.101 0.021 0.199 0.048 0.296 0.075l0.25 0.065c4.225 1.024 7.883 3.784 10.035 7.571 0.013 0.023 0.027 0.046 0.042 0.068 6.633 9.763 8.403 26.006 8.403 34.065s-1.77 24.302-8.446 34.132c-2.152 3.788-5.81 6.548-10.039 7.573l-0.246 0.064c-0.098 0.027-0.195 0.054-0.249 0.067-0.024 0.003-0.076 0.012-0.1 0.017-1.021 0.208-2.077 0.313-3.139 0.313-7.596 0-15.771-4.524-15.771-14.458 0-0.021 0-0.041-0.002-0.062 0.002-6.508 0.759-9.955 1.562-13.604 0.08-0.362 0.159-0.725 0.238-1.09 0.088-0.006 0.173-0.023 0.261-0.031 0.203-0.018 0.402-0.044 0.602-0.071 0.222-0.03 0.443-0.064 0.661-0.106 0.197-0.037 0.39-0.081 0.584-0.127 0.215-0.051 0.428-0.107 0.638-0.169 0.189-0.056 0.376-0.116 0.562-0.18 0.207-0.071 0.411-0.148 0.613-0.229 0.181-0.073 0.359-0.148 0.536-0.229 0.198-0.091 0.393-0.187 0.586-0.287 0.171-0.089 0.341-0.179 0.507-0.276 0.188-0.109 0.372-0.223 0.554-0.341 0.161-0.104 0.32-0.208 0.476-0.319 0.178-0.126 0.349-0.258 0.52-0.393 0.149-0.117 0.298-0.234 0.441-0.358 0.166-0.142 0.324-0.292 0.483-0.442 0.136-0.13 0.273-0.258 0.404-0.393 0.153-0.158 0.298-0.324 0.443-0.49 0.123-0.14 0.247-0.279 0.363-0.424 0.139-0.173 0.268-0.354 0.398-0.535 0.108-0.15 0.219-0.298 0.321-0.453 0.124-0.188 0.236-0.384 0.35-0.578 0.093-0.158 0.189-0.313 0.275-0.475 0.108-0.204 0.203-0.414 0.3-0.624 0.076-0.163 0.157-0.323 0.226-0.49 0.091-0.22 0.167-0.447 0.246-0.672 0.058-0.166 0.123-0.328 0.174-0.497 0.073-0.239 0.128-0.484 0.187-0.728 0.04-0.163 0.087-0.323 0.121-0.488 0.055-0.273 0.09-0.553 0.127-0.832 0.019-0.142 0.048-0.282 0.063-0.425 0.042-0.425 0.065-0.857 0.065-1.293s-0.023-0.867-0.065-1.293c-0.014-0.144-0.043-0.283-0.063-0.425-0.037-0.279-0.072-0.559-0.127-0.832-0.033-0.165-0.081-0.325-0.121-0.488-0.059-0.244-0.115-0.49-0.187-0.728-0.051-0.169-0.116-0.331-0.174-0.497-0.079-0.226-0.155-0.452-0.246-0.672-0.069-0.167-0.15-0.327-0.226-0.49-0.097-0.21-0.192-0.42-0.3-0.624-0.086-0.162-0.182-0.317-0.275-0.475-0.114-0.195-0.227-0.39-0.35-0.578-0.102-0.155-0.213-0.303-0.321-0.453-0.13-0.18-0.259-0.361-0.398-0.535-0.117-0.146-0.241-0.284-0.363-0.424-0.145-0.166-0.29-0.332-0.443-0.49-0.131-0.135-0.268-0.264-0.404-0.393-0.158-0.15-0.317-0.3-0.483-0.442-0.144-0.124-0.292-0.24-0.441-0.358-0.171-0.134-0.343-0.267-0.52-0.393-0.156-0.111-0.315-0.215-0.476-0.319-0.182-0.118-0.366-0.232-0.554-0.341-0.167-0.096-0.336-0.187-0.507-0.276-0.193-0.1-0.388-0.196-0.586-0.287-0.177-0.081-0.355-0.156-0.536-0.229-0.202-0.081-0.406-0.158-0.613-0.229-0.186-0.064-0.372-0.124-0.562-0.18-0.211-0.062-0.424-0.117-0.638-0.169-0.193-0.046-0.387-0.089-0.584-0.127-0.219-0.042-0.439-0.075-0.661-0.106-0.2-0.027-0.4-0.053-0.602-0.071-0.088-0.008-0.173-0.025-0.261-0.031-0.079-0.366-0.159-0.729-0.238-1.092C31.767 32.318 31.012 28.883 31.004 22.364zM33.913 39.21c0.095 0.018 0.193 0.028 0.288 0.048 0.343 0.074 0.681 0.163 1.012 0.268 0.059 0.019 0.114 0.044 0.173 0.063 0.27 0.091 0.536 0.187 0.796 0.297 0.112 0.048 0.218 0.104 0.328 0.156 0.201 0.094 0.402 0.187 0.597 0.292 0.12 0.065 0.235 0.138 0.353 0.208 0.176 0.104 0.352 0.207 0.521 0.32 0.12 0.08 0.234 0.167 0.351 0.251 0.159 0.115 0.317 0.231 0.469 0.354 0.114 0.093 0.224 0.19 0.335 0.287 0.145 0.127 0.288 0.255 0.425 0.389 0.107 0.104 0.21 0.212 0.312 0.32 0.131 0.138 0.259 0.279 0.382 0.423 0.098 0.114 0.192 0.231 0.285 0.349 0.117 0.149 0.23 0.301 0.34 0.456 0.087 0.123 0.173 0.248 0.255 0.375 0.103 0.16 0.201 0.323 0.296 0.489 0.075 0.13 0.15 0.261 0.219 0.394 0.09 0.172 0.172 0.347 0.252 0.524 0.062 0.135 0.125 0.27 0.181 0.408 0.075 0.184 0.141 0.373 0.206 0.562 0.047 0.138 0.098 0.274 0.14 0.414 0.06 0.201 0.109 0.406 0.157 0.612 0.032 0.134 0.069 0.267 0.096 0.403 0.046 0.23 0.076 0.466 0.107 0.701 0.015 0.116 0.038 0.23 0.049 0.348 0.035 0.355 0.055 0.714 0.055 1.078s-0.02 0.723-0.055 1.078c-0.012 0.117-0.034 0.232-0.049 0.348-0.031 0.235-0.062 0.47-0.107 0.701-0.027 0.136-0.064 0.269-0.096 0.403-0.049 0.205-0.097 0.411-0.157 0.612-0.042 0.14-0.093 0.276-0.14 0.413-0.065 0.189-0.131 0.378-0.206 0.563-0.056 0.138-0.119 0.272-0.181 0.408-0.081 0.177-0.163 0.353-0.252 0.525-0.07 0.134-0.144 0.264-0.219 0.394-0.095 0.165-0.193 0.329-0.296 0.489-0.082 0.127-0.168 0.251-0.255 0.375-0.109 0.155-0.223 0.307-0.34 0.456-0.093 0.118-0.188 0.235-0.285 0.349-0.124 0.145-0.252 0.285-0.382 0.423-0.103 0.108-0.206 0.216-0.312 0.32-0.138 0.134-0.281 0.262-0.425 0.389-0.11 0.097-0.22 0.195-0.335 0.287-0.152 0.123-0.31 0.239-0.469 0.354-0.116 0.084-0.231 0.171-0.351 0.251-0.169 0.113-0.345 0.217-0.521 0.32-0.117 0.069-0.232 0.143-0.353 0.208-0.195 0.106-0.397 0.199-0.6 0.293-0.109 0.051-0.214 0.107-0.325 0.154-0.26 0.111-0.528 0.207-0.798 0.298-0.058 0.019-0.113 0.044-0.171 0.063-0.331 0.105-0.668 0.194-1.012 0.268-0.095 0.02-0.192 0.031-0.288 0.048-0.228 0.042-0.456 0.082-0.689 0.11 0.579-3.054 0.95-6.243 0.95-10.9s-0.371-7.845-0.95-10.9C33.456 39.128 33.685 39.168 33.913 39.21z" fill="#ffffff" data-fill-palette-color="accent"></path></svg></g></svg></g><g></g></svg></g></svg></g></svg></g><defs></defs></svg><rect width="320" height="360" fill="none" stroke="none" visibility="hidden"></rect></g></svg></g></svg>