<svg xmlns="http://www.w3.org/2000/svg" version="1.1" xmlns:xlink="http://www.w3.org/1999/xlink" xmlns:svgjs="http://svgjs.dev/svgjs" width="2000" height="2264" viewBox="0 0 2000 2264"><g transform="matrix(1,0,0,1,-3.324262923734409,-3.651612903225896)"><svg viewBox="0 0 219 248" data-background-color="#000000" preserveAspectRatio="xMidYMid meet" height="2264" width="2000" xmlns="http://www.w3.org/2000/svg" xmlns:xlink="http://www.w3.org/1999/xlink"><g id="tight-bounds" transform="matrix(1,0,0,1,0.36400679014892035,0.4000000000000057)"><svg viewBox="0 0 218.27198641970216 247.2" height="247.2" width="218.27198641970216"><g><svg viewBox="0 0 395.52 447.9390397446561" height="247.2" width="218.27198641970216"><g transform="matrix(1,0,0,1,0,327.64419138925246)"><svg viewBox="0 0 395.52 120.29484835540366" height="120.29484835540366" width="395.52"><g id="textblocktransform"><svg viewBox="0 0 395.52 120.29484835540366" height="120.29484835540366" width="395.52" id="textblock"><g><svg viewBox="0 0 395.52 120.29484835540366" height="120.29484835540366" width="395.52"><g transform="matrix(1,0,0,1,0,0)"><svg width="395.52" viewBox="4 -35.05 117.04 35.599999999999994" height="120.29484835540366" data-palette-color="url(#92abc566-fb45-46b2-808e-a6cb72d2bf41)"></svg></g></svg></g></svg></g></svg></g><g transform="matrix(1,0,0,1,48.137267615548865,0)"><svg viewBox="0 0 299.24546476890225 299.2454647689022" height="299.2454647689022" width="299.24546476890225"><g><svg></svg></g><g id="icon-0"><svg viewBox="0 0 299.24546476890225 299.2454647689022" height="299.2454647689022" width="299.24546476890225"><g></g><g transform="matrix(1,0,0,1,59.84909295378047,78.86980411017795)"><svg viewBox="0 0 179.5472788613413 141.5058565485463" height="141.5058565485463" width="179.5472788613413"><g><svg xmlns="http://www.w3.org/2000/svg" xmlns:xlink="http://www.w3.org/1999/xlink" version="1.1" x="0" y="0" viewBox="4.930255843077492 14.342873569743714 89.99974415692252 70.93112725985985" enable-background="new 0 0 100 100" xml:space="preserve" height="141.5058565485463" width="179.5472788613413" class="icon-dxe-0" data-fill-palette-color="quaternary" id="dxe-0"><path d="M44.338 16.485C44.805 17.142 44.448 18.046 44.073 18.76 40.656 25.261 36.322 31.44 30.432 35.828 26.135 39.029 21.143 41.18 16.05 42.846A90 90 0 0 1 6.995 45.294C6.483 45.404 5.936 45.508 5.446 45.323 3.05 44.416 9.723 32.965 10.74 31.307 13.187 27.318 16.327 23.665 20.318 21.223 26.571 17.398 34.231 16.879 41.201 14.61 41.669 14.458 42.155 14.295 42.644 14.356 43.133 14.418 43.623 14.78 43.65 15.272 43.673 15.682 43.385 16.036 43.112 16.343A118.3 118.3 0 0 1 11.931 41.281C23.845 36.802 34.813 29.323 42.439 19.172A55 55 0 0 0 44.338 16.485M81.465 63.228C84.303 58.483 84.955 54.822 84.984 54.645A1 1 0 0 0 84.614 53.69L82.38 51.935A1.01 1.01 0 0 0 81.453 51.768C80.717 52.005 75.935 53.545 72.776 54.639 75.063 56.452 78.146 59.247 81.465 63.228M49.455 47.435C54.746 51.167 60.754 53.616 66.34 56.913 73.348 61.05 79.297 66.046 84.148 72.592 84.429 72.975 84.67 73.347 84.893 73.703 85.039 73.491 85.117 73.242 85.078 72.958 85.002 71.539 83.15 68.552 80.582 65.322 74.942 58.348 69.855 54.889 68.357 53.957 64.038 51.462 59.148 50.067 54.726 48.832L53.659 48.533C50.015 47.508 47.898 46.03 47.858 46.007A1.5 1.5 0 0 0 47.241 45.82L47.892 46.337C48.38 46.696 48.912 47.053 49.455 47.435M47.819 82.711C47.689 83.022 47.655 83.515 47.851 83.782 48.036 84.034 48.44 84.1 48.753 84.1 48.837 84.099 48.922 84.09 49.007 84.067 56.62 82.013 62.599 80.166 69.748 75.346 63.235 73.318 58.541 69.793 55.809 67.269 52.068 72.59 48.015 82.243 47.819 82.711M81.024 70.44C76.706 66.165 71.962 62.585 66.63 59.461 60.106 55.639 52.839 52.302 47.274 47.077L46.371 46.173C46.16 46.466 46.126 46.909 46.442 47.458 46.858 48.18 51.125 57.859 54.783 63.325 55.926 64.679 62.863 72.373 74.38 74.42 76.391 74.722 78.287 74.868 79.883 74.868 81.628 74.868 83.025 74.707 83.852 74.427 84.055 74.358 84.264 74.255 84.454 74.125A29 29 0 0 0 83.545 73.07 69 69 0 0 0 81.024 70.44M91.798 33.09C80.217 38.284 65.485 41.296 52.844 38.793 54.488 39.119 56.733 38.579 58.377 38.442 61.959 38.145 65.533 37.736 69.086 37.195 77.58 35.901 86.126 33.968 94.24 31.112L94.93 30.873A1 1 0 0 0 94.224 30.208L93.634 30.065C87.32 28.534 74.181 25.349 64.165 26.828 56.321 27.985 50.508 36.034 50.264 36.376A1 1 0 0 0 50.092 37.129L50.458 39.249A1 1 0 0 0 50.654 39.693C52.815 42.483 58.349 44.294 64.098 44.294 65.185 44.294 66.279 44.229 67.36 44.094 75.218 43.112 86.917 38.334 94.542 32.23 94.682 32.118 94.797 31.792 94.875 31.64L94.535 31.823C93.739 32.241 92.808 32.637 91.798 33.09M15.069 81.765C16.682 74.612 19.611 67.77 23.323 61.463A87 87 0 0 1 30.489 51.108 88 88 0 0 1 34.44 46.524C35.66 45.203 36.961 43.27 38.51 42.349 35.744 43.994 31.477 46.648 27.263 49.772 15.739 58.318 10.054 70.92 12.056 83.482 12.115 83.852 12.375 84.158 12.729 84.276 13.2 84.434 13.791 84.602 14.475 84.759 14.647 83.755 14.846 82.757 15.069 81.765M37.988 44.706A123 123 0 0 0 27.102 59.332C22.605 66.415 18.59 74.047 15.841 81.99 15.433 83.084 15.134 84.056 14.855 84.873 15.251 84.971 15.666 85.071 16.122 85.175A4 4 0 0 0 17.009 85.274C17.894 85.274 18.756 84.979 19.461 84.418L19.972 84.015C23.467 81.259 31.654 74.804 36.324 66.322 39.176 61.14 40.203 55.155 41.108 49.874 41.649 46.722 42.125 43.978 42.897 42.019 42.961 41.858 43.329 40.652 42.768 40.354 42.473 40.197 42.029 40.349 41.657 40.532 40.46 41.118 39.001 43.539 38.119 44.554z" fill="#000000" data-fill-palette-color="quaternary"></path></svg></g></svg></g></svg></g></svg></g><g></g></svg></g><defs></defs><mask id="962b8d4a-15f1-475f-9d70-5b458aae6e71"><g id="SvgjsG1748"><svg viewBox="0 0 218.27198641970216 247.2" height="247.2" width="218.27198641970216"><g><svg viewBox="0 0 395.52 447.9390397446561" height="247.2" width="218.27198641970216"><g transform="matrix(1,0,0,1,0,327.64419138925246)"><svg viewBox="0 0 395.52 120.29484835540366" height="120.29484835540366" width="395.52"><g id="SvgjsG1747"><svg viewBox="0 0 395.52 120.29484835540366" height="120.29484835540366" width="395.52" id="SvgjsSvg1746"><g><svg viewBox="0 0 395.52 120.29484835540366" height="120.29484835540366" width="395.52"><g transform="matrix(1,0,0,1,0,0)"><svg width="395.52" viewBox="4 -35.05 117.04 35.599999999999994" height="120.29484835540366" data-palette-color="url(#92abc566-fb45-46b2-808e-a6cb72d2bf41)"><path d="M22.3 0L4 0 4.6-12.15 4-34.5 22.75-34.5 22.2-29.15 10.95-29.15 10.65-20.3 20.65-20.3 20.1-15 10.45-15 10.4-13 10.75-5.3 22.85-5.3 22.3 0ZM36.8-34.85L43.1-15.6 43.6-15.6 50.9-34.6 57.8-34.4 58-12.9 58.95 0 52.2 0 52.45-13 51.9-26.15 45.9-9.6 39.75-9.3 34.15-26.15 33.7-13 34.05 0 27.85 0 28.55-12.15 28.85-33.6 36.8-34.85ZM76.6 0.55L76.6 0.55Q71.05 0.55 67.25-4.1 63.45-8.75 63.45-15.5L63.45-15.5Q63.45-23.75 68.02-29.4 72.6-35.05 79.25-35.05L79.25-35.05Q81.85-35.05 84.07-34.52 86.3-34 87.25-33.45L87.25-33.45 88.15-32.9 84.75-25.95Q83.6-26.95 81.5-27.83 79.4-28.7 77.7-28.7L77.7-28.7Q74.25-28.7 72.17-25.85 70.1-23 70.1-17.73 70.1-12.45 72.25-9.08 74.4-5.7 78.1-5.7L78.1-5.7Q80.5-5.7 82.45-7.2 84.4-8.7 85.2-11.2L85.2-11.2 89.35-8.8Q87.7-4.4 84.3-1.93 80.9 0.55 76.6 0.55ZM107.49-35L107.49-35Q113.39-35 117.22-30.5 121.04-26 121.04-19.05L121.04-19.05Q121.04-10.25 116.49-4.85 111.94 0.55 104.54 0.55L104.54 0.55Q98.79 0.55 94.89-4.08 90.99-8.7 90.99-15.5L90.99-15.5Q90.99-24 95.64-29.5 100.29-35 107.49-35ZM114.24-16.25L114.24-16.25Q114.24-28.9 105.94-28.9L105.94-28.9Q102.14-28.9 99.97-26.08 97.79-23.25 97.79-17.63 97.79-12 100.12-8.38 102.44-4.75 106.27-4.75 110.09-4.75 112.17-7.83 114.24-10.9 114.24-16.25Z" opacity="1" transform="matrix(1,0,0,1,0,0)" fill="white" class="wordmark-text-0" id="SvgjsPath1745"></path></svg></g></svg></g></svg></g></svg></g><g transform="matrix(1,0,0,1,48.137267615548865,0)"><svg viewBox="0 0 299.24546476890225 299.2454647689022" height="299.2454647689022" width="299.24546476890225"><g><svg></svg></g><g id="SvgjsG1744"><svg viewBox="0 0 299.24546476890225 299.2454647689022" height="299.2454647689022" width="299.24546476890225"><g><path transform="scale(2.99245,2.99245)" d="M30 100c-16.569 0-30-13.431-30-30v-40c0-16.569 13.431-30 30-30h40c16.569 0 30 13.431 30 30v40c0 16.569-13.431 30-30 30z" fill="black" fill-rule="nonzero" stroke="none" stroke-width="1" stroke-linecap="butt" stroke-linejoin="miter" stroke-miterlimit="10" stroke-dasharray="" stroke-dashoffset="0" font-family="none" font-weight="none" font-size="none" text-anchor="none" style="mix-blend-mode: normal"></path></g><g transform="matrix(1,0,0,1,59.84909295378047,78.86980411017795)"><svg viewBox="0 0 179.5472788613413 141.5058565485463" height="141.5058565485463" width="179.5472788613413"><g><svg xmlns="http://www.w3.org/2000/svg" xmlns:xlink="http://www.w3.org/1999/xlink" version="1.1" x="0" y="0" viewBox="4.930255843077492 14.342873569743714 89.99974415692252 70.93112725985985" enable-background="new 0 0 100 100" xml:space="preserve" height="141.5058565485463" width="179.5472788613413" class="icon-dxe-0" data-fill-palette-color="quaternary" id="SvgjsSvg1743"><path d="M44.338 16.485C44.805 17.142 44.448 18.046 44.073 18.76 40.656 25.261 36.322 31.44 30.432 35.828 26.135 39.029 21.143 41.18 16.05 42.846A90 90 0 0 1 6.995 45.294C6.483 45.404 5.936 45.508 5.446 45.323 3.05 44.416 9.723 32.965 10.74 31.307 13.187 27.318 16.327 23.665 20.318 21.223 26.571 17.398 34.231 16.879 41.201 14.61 41.669 14.458 42.155 14.295 42.644 14.356 43.133 14.418 43.623 14.78 43.65 15.272 43.673 15.682 43.385 16.036 43.112 16.343A118.3 118.3 0 0 1 11.931 41.281C23.845 36.802 34.813 29.323 42.439 19.172A55 55 0 0 0 44.338 16.485M81.465 63.228C84.303 58.483 84.955 54.822 84.984 54.645A1 1 0 0 0 84.614 53.69L82.38 51.935A1.01 1.01 0 0 0 81.453 51.768C80.717 52.005 75.935 53.545 72.776 54.639 75.063 56.452 78.146 59.247 81.465 63.228M49.455 47.435C54.746 51.167 60.754 53.616 66.34 56.913 73.348 61.05 79.297 66.046 84.148 72.592 84.429 72.975 84.67 73.347 84.893 73.703 85.039 73.491 85.117 73.242 85.078 72.958 85.002 71.539 83.15 68.552 80.582 65.322 74.942 58.348 69.855 54.889 68.357 53.957 64.038 51.462 59.148 50.067 54.726 48.832L53.659 48.533C50.015 47.508 47.898 46.03 47.858 46.007A1.5 1.5 0 0 0 47.241 45.82L47.892 46.337C48.38 46.696 48.912 47.053 49.455 47.435M47.819 82.711C47.689 83.022 47.655 83.515 47.851 83.782 48.036 84.034 48.44 84.1 48.753 84.1 48.837 84.099 48.922 84.09 49.007 84.067 56.62 82.013 62.599 80.166 69.748 75.346 63.235 73.318 58.541 69.793 55.809 67.269 52.068 72.59 48.015 82.243 47.819 82.711M81.024 70.44C76.706 66.165 71.962 62.585 66.63 59.461 60.106 55.639 52.839 52.302 47.274 47.077L46.371 46.173C46.16 46.466 46.126 46.909 46.442 47.458 46.858 48.18 51.125 57.859 54.783 63.325 55.926 64.679 62.863 72.373 74.38 74.42 76.391 74.722 78.287 74.868 79.883 74.868 81.628 74.868 83.025 74.707 83.852 74.427 84.055 74.358 84.264 74.255 84.454 74.125A29 29 0 0 0 83.545 73.07 69 69 0 0 0 81.024 70.44M91.798 33.09C80.217 38.284 65.485 41.296 52.844 38.793 54.488 39.119 56.733 38.579 58.377 38.442 61.959 38.145 65.533 37.736 69.086 37.195 77.58 35.901 86.126 33.968 94.24 31.112L94.93 30.873A1 1 0 0 0 94.224 30.208L93.634 30.065C87.32 28.534 74.181 25.349 64.165 26.828 56.321 27.985 50.508 36.034 50.264 36.376A1 1 0 0 0 50.092 37.129L50.458 39.249A1 1 0 0 0 50.654 39.693C52.815 42.483 58.349 44.294 64.098 44.294 65.185 44.294 66.279 44.229 67.36 44.094 75.218 43.112 86.917 38.334 94.542 32.23 94.682 32.118 94.797 31.792 94.875 31.64L94.535 31.823C93.739 32.241 92.808 32.637 91.798 33.09M15.069 81.765C16.682 74.612 19.611 67.77 23.323 61.463A87 87 0 0 1 30.489 51.108 88 88 0 0 1 34.44 46.524C35.66 45.203 36.961 43.27 38.51 42.349 35.744 43.994 31.477 46.648 27.263 49.772 15.739 58.318 10.054 70.92 12.056 83.482 12.115 83.852 12.375 84.158 12.729 84.276 13.2 84.434 13.791 84.602 14.475 84.759 14.647 83.755 14.846 82.757 15.069 81.765M37.988 44.706A123 123 0 0 0 27.102 59.332C22.605 66.415 18.59 74.047 15.841 81.99 15.433 83.084 15.134 84.056 14.855 84.873 15.251 84.971 15.666 85.071 16.122 85.175A4 4 0 0 0 17.009 85.274C17.894 85.274 18.756 84.979 19.461 84.418L19.972 84.015C23.467 81.259 31.654 74.804 36.324 66.322 39.176 61.14 40.203 55.155 41.108 49.874 41.649 46.722 42.125 43.978 42.897 42.019 42.961 41.858 43.329 40.652 42.768 40.354 42.473 40.197 42.029 40.349 41.657 40.532 40.46 41.118 39.001 43.539 38.119 44.554z" fill="black"></path></svg></g></svg></g></svg></g></svg></g><g></g></svg></g><defs><mask></mask></defs></svg><rect width="218.27198641970216" height="247.2" fill="black" stroke="none" visibility="hidden"></rect></g></mask><linearGradient x1="0" x2="1" y1="0.578" y2="0.595" id="92abc566-fb45-46b2-808e-a6cb72d2bf41"><stop stop-color="#6ee2f5" offset="0"></stop><stop stop-color="#6454f0" offset="1"></stop></linearGradient><rect width="218.27198641970216" height="247.2" fill="url(#92abc566-fb45-46b2-808e-a6cb72d2bf41)" mask="url(#962b8d4a-15f1-475f-9d70-5b458aae6e71)" data-fill-palette-color="primary"></rect><mask id="81fa4cda-7053-41e8-9fba-2af943b83b05"><g id="SvgjsG1771"><svg viewBox="0 0 218.27198641970216 247.2" height="247.2" width="218.27198641970216"><g><svg viewBox="0 0 395.52 447.9390397446561" height="247.2" width="218.27198641970216"><g transform="matrix(1,0,0,1,0,327.64419138925246)"><svg viewBox="0 0 395.52 120.29484835540366" height="120.29484835540366" width="395.52"><g id="SvgjsG1770"><svg viewBox="0 0 395.52 120.29484835540366" height="120.29484835540366" width="395.52" id="SvgjsSvg1769"><g><svg viewBox="0 0 395.52 120.29484835540366" height="120.29484835540366" width="395.52"><g transform="matrix(1,0,0,1,0,0)"><svg width="395.52" viewBox="4 -35.05 117.04 35.599999999999994" height="120.29484835540366" data-palette-color="url(#92abc566-fb45-46b2-808e-a6cb72d2bf41)"></svg></g></svg></g></svg></g></svg></g><g transform="matrix(1,0,0,1,48.137267615548865,0)"><svg viewBox="0 0 299.24546476890225 299.2454647689022" height="299.2454647689022" width="299.24546476890225"><g><svg></svg></g><g id="SvgjsG1768"><svg viewBox="0 0 299.24546476890225 299.2454647689022" height="299.2454647689022" width="299.24546476890225"><g><path transform="scale(2.99245,2.99245)" d="M30 100c-16.569 0-30-13.431-30-30v-40c0-16.569 13.431-30 30-30h40c16.569 0 30 13.431 30 30v40c0 16.569-13.431 30-30 30z" fill="white" fill-rule="nonzero" stroke="none" stroke-width="1" stroke-linecap="butt" stroke-linejoin="miter" stroke-miterlimit="10" stroke-dasharray="" stroke-dashoffset="0" font-family="none" font-weight="none" font-size="none" text-anchor="none" style="mix-blend-mode: normal"></path></g><g transform="matrix(1,0,0,1,59.84909295378047,78.86980411017795)"><svg viewBox="0 0 179.5472788613413 141.5058565485463" height="141.5058565485463" width="179.5472788613413"><g><svg xmlns="http://www.w3.org/2000/svg" xmlns:xlink="http://www.w3.org/1999/xlink" version="1.1" x="0" y="0" viewBox="4.930255843077492 14.342873569743714 89.99974415692252 70.93112725985985" enable-background="new 0 0 100 100" xml:space="preserve" height="141.5058565485463" width="179.5472788613413" class="icon-dxe-0" data-fill-palette-color="quaternary" id="SvgjsSvg1767"><path d="M44.338 16.485C44.805 17.142 44.448 18.046 44.073 18.76 40.656 25.261 36.322 31.44 30.432 35.828 26.135 39.029 21.143 41.18 16.05 42.846A90 90 0 0 1 6.995 45.294C6.483 45.404 5.936 45.508 5.446 45.323 3.05 44.416 9.723 32.965 10.74 31.307 13.187 27.318 16.327 23.665 20.318 21.223 26.571 17.398 34.231 16.879 41.201 14.61 41.669 14.458 42.155 14.295 42.644 14.356 43.133 14.418 43.623 14.78 43.65 15.272 43.673 15.682 43.385 16.036 43.112 16.343A118.3 118.3 0 0 1 11.931 41.281C23.845 36.802 34.813 29.323 42.439 19.172A55 55 0 0 0 44.338 16.485M81.465 63.228C84.303 58.483 84.955 54.822 84.984 54.645A1 1 0 0 0 84.614 53.69L82.38 51.935A1.01 1.01 0 0 0 81.453 51.768C80.717 52.005 75.935 53.545 72.776 54.639 75.063 56.452 78.146 59.247 81.465 63.228M49.455 47.435C54.746 51.167 60.754 53.616 66.34 56.913 73.348 61.05 79.297 66.046 84.148 72.592 84.429 72.975 84.67 73.347 84.893 73.703 85.039 73.491 85.117 73.242 85.078 72.958 85.002 71.539 83.15 68.552 80.582 65.322 74.942 58.348 69.855 54.889 68.357 53.957 64.038 51.462 59.148 50.067 54.726 48.832L53.659 48.533C50.015 47.508 47.898 46.03 47.858 46.007A1.5 1.5 0 0 0 47.241 45.82L47.892 46.337C48.38 46.696 48.912 47.053 49.455 47.435M47.819 82.711C47.689 83.022 47.655 83.515 47.851 83.782 48.036 84.034 48.44 84.1 48.753 84.1 48.837 84.099 48.922 84.09 49.007 84.067 56.62 82.013 62.599 80.166 69.748 75.346 63.235 73.318 58.541 69.793 55.809 67.269 52.068 72.59 48.015 82.243 47.819 82.711M81.024 70.44C76.706 66.165 71.962 62.585 66.63 59.461 60.106 55.639 52.839 52.302 47.274 47.077L46.371 46.173C46.16 46.466 46.126 46.909 46.442 47.458 46.858 48.18 51.125 57.859 54.783 63.325 55.926 64.679 62.863 72.373 74.38 74.42 76.391 74.722 78.287 74.868 79.883 74.868 81.628 74.868 83.025 74.707 83.852 74.427 84.055 74.358 84.264 74.255 84.454 74.125A29 29 0 0 0 83.545 73.07 69 69 0 0 0 81.024 70.44M91.798 33.09C80.217 38.284 65.485 41.296 52.844 38.793 54.488 39.119 56.733 38.579 58.377 38.442 61.959 38.145 65.533 37.736 69.086 37.195 77.58 35.901 86.126 33.968 94.24 31.112L94.93 30.873A1 1 0 0 0 94.224 30.208L93.634 30.065C87.32 28.534 74.181 25.349 64.165 26.828 56.321 27.985 50.508 36.034 50.264 36.376A1 1 0 0 0 50.092 37.129L50.458 39.249A1 1 0 0 0 50.654 39.693C52.815 42.483 58.349 44.294 64.098 44.294 65.185 44.294 66.279 44.229 67.36 44.094 75.218 43.112 86.917 38.334 94.542 32.23 94.682 32.118 94.797 31.792 94.875 31.64L94.535 31.823C93.739 32.241 92.808 32.637 91.798 33.09M15.069 81.765C16.682 74.612 19.611 67.77 23.323 61.463A87 87 0 0 1 30.489 51.108 88 88 0 0 1 34.44 46.524C35.66 45.203 36.961 43.27 38.51 42.349 35.744 43.994 31.477 46.648 27.263 49.772 15.739 58.318 10.054 70.92 12.056 83.482 12.115 83.852 12.375 84.158 12.729 84.276 13.2 84.434 13.791 84.602 14.475 84.759 14.647 83.755 14.846 82.757 15.069 81.765M37.988 44.706A123 123 0 0 0 27.102 59.332C22.605 66.415 18.59 74.047 15.841 81.99 15.433 83.084 15.134 84.056 14.855 84.873 15.251 84.971 15.666 85.071 16.122 85.175A4 4 0 0 0 17.009 85.274C17.894 85.274 18.756 84.979 19.461 84.418L19.972 84.015C23.467 81.259 31.654 74.804 36.324 66.322 39.176 61.14 40.203 55.155 41.108 49.874 41.649 46.722 42.125 43.978 42.897 42.019 42.961 41.858 43.329 40.652 42.768 40.354 42.473 40.197 42.029 40.349 41.657 40.532 40.46 41.118 39.001 43.539 38.119 44.554z" fill="black"></path></svg></g></svg></g></svg></g></svg></g><g></g></svg></g><defs><mask></mask></defs><mask><g id="SvgjsG1766"><svg viewBox="0 0 218.27198641970216 247.2" height="247.2" width="218.27198641970216"><g><svg viewBox="0 0 395.52 447.9390397446561" height="247.2" width="218.27198641970216"><g transform="matrix(1,0,0,1,0,327.64419138925246)"><svg viewBox="0 0 395.52 120.29484835540366" height="120.29484835540366" width="395.52"><g id="SvgjsG1765"><svg viewBox="0 0 395.52 120.29484835540366" height="120.29484835540366" width="395.52" id="SvgjsSvg1764"><g><svg viewBox="0 0 395.52 120.29484835540366" height="120.29484835540366" width="395.52"><g transform="matrix(1,0,0,1,0,0)"><svg width="395.52" viewBox="4 -35.05 117.04 35.599999999999994" height="120.29484835540366" data-palette-color="url(#92abc566-fb45-46b2-808e-a6cb72d2bf41)"><path d="M22.3 0L4 0 4.6-12.15 4-34.5 22.75-34.5 22.2-29.15 10.95-29.15 10.65-20.3 20.65-20.3 20.1-15 10.45-15 10.4-13 10.75-5.3 22.85-5.3 22.3 0ZM36.8-34.85L43.1-15.6 43.6-15.6 50.9-34.6 57.8-34.4 58-12.9 58.95 0 52.2 0 52.45-13 51.9-26.15 45.9-9.6 39.75-9.3 34.15-26.15 33.7-13 34.05 0 27.85 0 28.55-12.15 28.85-33.6 36.8-34.85ZM76.6 0.55L76.6 0.55Q71.05 0.55 67.25-4.1 63.45-8.75 63.45-15.5L63.45-15.5Q63.45-23.75 68.02-29.4 72.6-35.05 79.25-35.05L79.25-35.05Q81.85-35.05 84.07-34.52 86.3-34 87.25-33.45L87.25-33.45 88.15-32.9 84.75-25.95Q83.6-26.95 81.5-27.83 79.4-28.7 77.7-28.7L77.7-28.7Q74.25-28.7 72.17-25.85 70.1-23 70.1-17.73 70.1-12.45 72.25-9.08 74.4-5.7 78.1-5.7L78.1-5.7Q80.5-5.7 82.45-7.2 84.4-8.7 85.2-11.2L85.2-11.2 89.35-8.8Q87.7-4.4 84.3-1.93 80.9 0.55 76.6 0.55ZM107.49-35L107.49-35Q113.39-35 117.22-30.5 121.04-26 121.04-19.05L121.04-19.05Q121.04-10.25 116.49-4.85 111.94 0.55 104.54 0.55L104.54 0.55Q98.79 0.55 94.89-4.08 90.99-8.7 90.99-15.5L90.99-15.5Q90.99-24 95.64-29.5 100.29-35 107.49-35ZM114.24-16.25L114.24-16.25Q114.24-28.9 105.94-28.9L105.94-28.9Q102.14-28.9 99.97-26.08 97.79-23.25 97.79-17.63 97.79-12 100.12-8.38 102.44-4.75 106.27-4.75 110.09-4.75 112.17-7.83 114.24-10.9 114.24-16.25Z" opacity="1" transform="matrix(1,0,0,1,0,0)" fill="black" class="wordmark-text-0" id="SvgjsPath1763"></path></svg></g></svg></g></svg></g></svg></g><g transform="matrix(1,0,0,1,48.137267615548865,0)"><svg viewBox="0 0 299.24546476890225 299.2454647689022" height="299.2454647689022" width="299.24546476890225"><g><svg></svg></g><g id="SvgjsG1762"><svg viewBox="0 0 299.24546476890225 299.2454647689022" height="299.2454647689022" width="299.24546476890225"><g><path transform="scale(2.99245,2.99245)" d="M30 100c-16.569 0-30-13.431-30-30v-40c0-16.569 13.431-30 30-30h40c16.569 0 30 13.431 30 30v40c0 16.569-13.431 30-30 30z" fill="black" fill-rule="nonzero" stroke="none" stroke-width="1" stroke-linecap="butt" stroke-linejoin="miter" stroke-miterlimit="10" stroke-dasharray="" stroke-dashoffset="0" font-family="none" font-weight="none" font-size="none" text-anchor="none" style="mix-blend-mode: normal"></path></g><g transform="matrix(1,0,0,1,59.84909295378047,78.86980411017795)"><svg viewBox="0 0 179.5472788613413 141.5058565485463" height="141.5058565485463" width="179.5472788613413"><g><svg xmlns="http://www.w3.org/2000/svg" xmlns:xlink="http://www.w3.org/1999/xlink" version="1.1" x="0" y="0" viewBox="4.930255843077492 14.342873569743714 89.99974415692252 70.93112725985985" enable-background="new 0 0 100 100" xml:space="preserve" height="141.5058565485463" width="179.5472788613413" class="icon-dxe-0" data-fill-palette-color="quaternary" id="SvgjsSvg1761"><path d="M44.338 16.485C44.805 17.142 44.448 18.046 44.073 18.76 40.656 25.261 36.322 31.44 30.432 35.828 26.135 39.029 21.143 41.18 16.05 42.846A90 90 0 0 1 6.995 45.294C6.483 45.404 5.936 45.508 5.446 45.323 3.05 44.416 9.723 32.965 10.74 31.307 13.187 27.318 16.327 23.665 20.318 21.223 26.571 17.398 34.231 16.879 41.201 14.61 41.669 14.458 42.155 14.295 42.644 14.356 43.133 14.418 43.623 14.78 43.65 15.272 43.673 15.682 43.385 16.036 43.112 16.343A118.3 118.3 0 0 1 11.931 41.281C23.845 36.802 34.813 29.323 42.439 19.172A55 55 0 0 0 44.338 16.485M81.465 63.228C84.303 58.483 84.955 54.822 84.984 54.645A1 1 0 0 0 84.614 53.69L82.38 51.935A1.01 1.01 0 0 0 81.453 51.768C80.717 52.005 75.935 53.545 72.776 54.639 75.063 56.452 78.146 59.247 81.465 63.228M49.455 47.435C54.746 51.167 60.754 53.616 66.34 56.913 73.348 61.05 79.297 66.046 84.148 72.592 84.429 72.975 84.67 73.347 84.893 73.703 85.039 73.491 85.117 73.242 85.078 72.958 85.002 71.539 83.15 68.552 80.582 65.322 74.942 58.348 69.855 54.889 68.357 53.957 64.038 51.462 59.148 50.067 54.726 48.832L53.659 48.533C50.015 47.508 47.898 46.03 47.858 46.007A1.5 1.5 0 0 0 47.241 45.82L47.892 46.337C48.38 46.696 48.912 47.053 49.455 47.435M47.819 82.711C47.689 83.022 47.655 83.515 47.851 83.782 48.036 84.034 48.44 84.1 48.753 84.1 48.837 84.099 48.922 84.09 49.007 84.067 56.62 82.013 62.599 80.166 69.748 75.346 63.235 73.318 58.541 69.793 55.809 67.269 52.068 72.59 48.015 82.243 47.819 82.711M81.024 70.44C76.706 66.165 71.962 62.585 66.63 59.461 60.106 55.639 52.839 52.302 47.274 47.077L46.371 46.173C46.16 46.466 46.126 46.909 46.442 47.458 46.858 48.18 51.125 57.859 54.783 63.325 55.926 64.679 62.863 72.373 74.38 74.42 76.391 74.722 78.287 74.868 79.883 74.868 81.628 74.868 83.025 74.707 83.852 74.427 84.055 74.358 84.264 74.255 84.454 74.125A29 29 0 0 0 83.545 73.07 69 69 0 0 0 81.024 70.44M91.798 33.09C80.217 38.284 65.485 41.296 52.844 38.793 54.488 39.119 56.733 38.579 58.377 38.442 61.959 38.145 65.533 37.736 69.086 37.195 77.58 35.901 86.126 33.968 94.24 31.112L94.93 30.873A1 1 0 0 0 94.224 30.208L93.634 30.065C87.32 28.534 74.181 25.349 64.165 26.828 56.321 27.985 50.508 36.034 50.264 36.376A1 1 0 0 0 50.092 37.129L50.458 39.249A1 1 0 0 0 50.654 39.693C52.815 42.483 58.349 44.294 64.098 44.294 65.185 44.294 66.279 44.229 67.36 44.094 75.218 43.112 86.917 38.334 94.542 32.23 94.682 32.118 94.797 31.792 94.875 31.64L94.535 31.823C93.739 32.241 92.808 32.637 91.798 33.09M15.069 81.765C16.682 74.612 19.611 67.77 23.323 61.463A87 87 0 0 1 30.489 51.108 88 88 0 0 1 34.44 46.524C35.66 45.203 36.961 43.27 38.51 42.349 35.744 43.994 31.477 46.648 27.263 49.772 15.739 58.318 10.054 70.92 12.056 83.482 12.115 83.852 12.375 84.158 12.729 84.276 13.2 84.434 13.791 84.602 14.475 84.759 14.647 83.755 14.846 82.757 15.069 81.765M37.988 44.706A123 123 0 0 0 27.102 59.332C22.605 66.415 18.59 74.047 15.841 81.99 15.433 83.084 15.134 84.056 14.855 84.873 15.251 84.971 15.666 85.071 16.122 85.175A4 4 0 0 0 17.009 85.274C17.894 85.274 18.756 84.979 19.461 84.418L19.972 84.015C23.467 81.259 31.654 74.804 36.324 66.322 39.176 61.14 40.203 55.155 41.108 49.874 41.649 46.722 42.125 43.978 42.897 42.019 42.961 41.858 43.329 40.652 42.768 40.354 42.473 40.197 42.029 40.349 41.657 40.532 40.46 41.118 39.001 43.539 38.119 44.554z" fill="black"></path></svg></g></svg></g></svg></g></svg></g><g></g></svg></g><defs><mask></mask></defs></svg><rect width="218.27198641970216" height="247.2" fill="black" stroke="none" visibility="hidden"></rect></g></mask></svg><rect width="218.27198641970216" height="247.2" fill="black" stroke="none" visibility="hidden"></rect></g></mask><linearGradient x1="0" x2="1" y1="0.578" y2="0.595" id="f061f1e8-14cc-4273-829f-f10ad1d7c81a"><stop stop-color="#6ee2f5" offset="0"></stop><stop stop-color="#6454f0" offset="1"></stop></linearGradient><rect width="218.27198641970216" height="247.2" fill="url(#f061f1e8-14cc-4273-829f-f10ad1d7c81a)" mask="url(#81fa4cda-7053-41e8-9fba-2af943b83b05)" data-fill-palette-color="accent"></rect></svg><rect width="218.27198641970216" height="247.2" fill="none" stroke="none" visibility="hidden"></rect></g></svg></g></svg>