<svg xmlns="http://www.w3.org/2000/svg" version="1.1" xmlns:xlink="http://www.w3.org/1999/xlink" xmlns:svgjs="http://svgjs.dev/svgjs" width="2000" height="1922" viewBox="0 0 2000 1922"><g transform="matrix(1,0,0,1,-2.9445393129518607,17.601102179355962)"><svg viewBox="0 0 258 248" data-background-color="#ffffff" preserveAspectRatio="xMidYMid meet" height="1922" width="2000" xmlns="http://www.w3.org/2000/svg" xmlns:xlink="http://www.w3.org/1999/xlink"><g id="tight-bounds" transform="matrix(1,0,0,1,0.3798455713707938,0.439080440866519)"><svg viewBox="0 0 257.2403088572584 247.2" height="247.2" width="257.2403088572584"><g><svg viewBox="0 0 395.52 380.08251674994517" height="247.2" width="257.2403088572584"><g transform="matrix(1,0,0,1,0,282.24013716706924)"><svg viewBox="0 0 395.52 97.84237958287596" height="97.84237958287596" width="395.52"><g id="textblocktransform"><svg viewBox="0 0 395.52 97.84237958287596" height="97.84237958287596" width="395.52" id="textblock"><g><svg viewBox="0 0 395.52 97.84237958287596" height="97.84237958287596" width="395.52"><rect width="395.52" height="97.84237958287596" x="0" y="0" opacity="1" fill="#085f63" data-fill-palette-color="tertiary"></rect><g transform="matrix(1,0,0,1,23.607599999999998,23.607599999999998)"><svg width="348.3048" viewBox="3.66 -38.18 266.86999999999995 38.79" height="50.62717958287596" data-palette-color="#ffffff"><path d="M23.54-14.01L23.73-14.01Q24.07-15.33 24.48-16.61 24.88-17.9 25.46-19.48L25.46-19.48Q25.98-20.9 26.71-22.74 27.44-24.58 28.26-26.49 29.08-28.39 29.86-30.03 30.64-31.67 31.27-32.64L31.27-32.64Q32.06-33.84 32.97-34.42 33.89-35.01 35.67-35.01L35.67-35.01 38.87-35.01Q40.14-35.01 41-34.63 41.87-34.25 42.24-32.84L42.24-32.84Q42.5-31.79 42.75-29.76 42.99-27.73 43.16-24.15 43.33-20.56 43.43-14.93 43.53-9.3 43.53-1.03L43.53-1.03Q43.53-0.59 43.24-0.29 42.94 0 42.53 0L42.53 0 36.96 0Q36.55 0 36.25-0.29 35.96-0.59 35.96-1.05L35.96-1.05Q35.96-7.5 35.96-11.99 35.96-16.48 35.94-19.43 35.91-22.39 35.88-24.13 35.84-25.88 35.77-26.83L35.77-26.83 35.62-26.83Q34.33-23.85 32.86-20.2 31.4-16.55 30-12.68 28.61-8.81 27.51-5.13L27.51-5.13Q27.2-4.03 26.72-3.6 26.25-3.17 24.56-3.17L24.56-3.17 21.75-3.17Q20.31-3.17 19.84-3.54 19.36-3.91 19.02-5.13L19.02-5.13Q18.21-7.91 17.24-11.01 16.26-14.11 15.22-17.1 14.18-20.09 13.22-22.62 12.26-25.15 11.5-26.83L11.5-26.83 11.35-26.83Q11.16-23.95 11.01-19.82 10.86-15.7 10.78-10.86 10.69-6.03 10.67-1L10.67-1Q10.67-0.56 10.38-0.28 10.08 0 9.67 0L9.67 0 4.66 0Q4.25 0 3.96-0.29 3.66-0.59 3.66-1.05L3.66-1.05Q3.69-14.06 4.19-21.83 4.69-29.59 5.27-32.23L5.27-32.23Q5.66-33.96 6.65-34.48 7.64-35.01 8.91-35.01L8.91-35.01 12.87-35.01Q14.21-35.01 14.83-34.53 15.45-34.06 16.36-32.69L16.36-32.69Q16.89-31.88 17.64-30.27 18.38-28.66 19.19-26.7 20-24.73 20.72-22.81 21.44-20.9 21.9-19.48L21.9-19.48Q22.39-18.04 22.8-16.69 23.22-15.33 23.54-14.01L23.54-14.01ZM49.36-33.2L49.36-33.2Q49.36-33.52 49.56-33.76 49.75-34.01 50.07-34.4L50.07-34.4Q50.75-35.18 51.66-36.05 52.56-36.91 53.49-37.72L53.49-37.72Q54.07-38.18 54.37-38.18L54.37-38.18Q54.66-38.18 55.27-37.72L55.27-37.72Q57.25-36.01 58.64-34.4L58.64-34.4Q58.96-34.03 59.16-33.78 59.37-33.52 59.37-33.2L59.37-33.2Q59.37-32.89 59.16-32.64 58.96-32.4 58.62-31.98L58.62-31.98Q57.96-31.23 57.08-30.36 56.2-29.49 55.27-28.71L55.27-28.71Q54.93-28.42 54.73-28.33 54.54-28.25 54.37-28.25L54.37-28.25Q54.2-28.25 54.01-28.33 53.83-28.42 53.44-28.71L53.44-28.71Q52.46-29.49 51.61-30.36 50.75-31.23 50.07-32.03L50.07-32.03Q49.75-32.42 49.56-32.65 49.36-32.89 49.36-33.2ZM58.2-23.71L58.2-1.29Q58.2-0.56 57.9-0.28 57.59 0 56.86 0L56.86 0 51.83 0Q51.1 0 50.79-0.28 50.49-0.56 50.49-1.29L50.49-1.29 50.49-23.71Q50.49-24.44 50.79-24.72 51.1-25 51.83-25L51.83-25 56.86-25Q57.59-25 57.9-24.72 58.2-24.44 58.2-23.71L58.2-23.71ZM98.87-14.01L99.06-14.01Q99.41-15.33 99.81-16.61 100.21-17.9 100.8-19.48L100.8-19.48Q101.31-20.9 102.04-22.74 102.78-24.58 103.59-26.49 104.41-28.39 105.19-30.03 105.97-31.67 106.61-32.64L106.61-32.64Q107.39-33.84 108.31-34.42 109.22-35.01 111-35.01L111-35.01 114.2-35.01Q115.47-35.01 116.34-34.63 117.2-34.25 117.57-32.84L117.57-32.84Q117.84-31.79 118.08-29.76 118.33-27.73 118.5-24.15 118.67-20.56 118.77-14.93 118.86-9.3 118.86-1.03L118.86-1.03Q118.86-0.59 118.57-0.29 118.28 0 117.86 0L117.86 0 112.3 0Q111.88 0 111.59-0.29 111.3-0.59 111.3-1.05L111.3-1.05Q111.3-7.5 111.3-11.99 111.3-16.48 111.27-19.43 111.25-22.39 111.21-24.13 111.17-25.88 111.1-26.83L111.1-26.83 110.95-26.83Q109.66-23.85 108.2-20.2 106.73-16.55 105.34-12.68 103.95-8.81 102.85-5.13L102.85-5.13Q102.53-4.03 102.06-3.6 101.58-3.17 99.89-3.17L99.89-3.17 97.09-3.17Q95.65-3.17 95.17-3.54 94.69-3.91 94.35-5.13L94.35-5.13Q93.55-7.91 92.57-11.01 91.59-14.11 90.56-17.1 89.52-20.09 88.55-22.62 87.59-25.15 86.83-26.83L86.83-26.83 86.69-26.83Q86.49-23.95 86.35-19.82 86.2-15.7 86.11-10.86 86.03-6.03 86-1L86-1Q86-0.56 85.71-0.28 85.42 0 85 0L85 0 80 0Q79.58 0 79.29-0.29 79-0.59 79-1.05L79-1.05Q79.02-14.06 79.52-21.83 80.02-29.59 80.61-32.23L80.61-32.23Q81-33.96 81.99-34.48 82.98-35.01 84.25-35.01L84.25-35.01 88.2-35.01Q89.54-35.01 90.17-34.53 90.79-34.06 91.69-32.69L91.69-32.69Q92.23-31.88 92.97-30.27 93.72-28.66 94.52-26.7 95.33-24.73 96.05-22.81 96.77-20.9 97.23-19.48L97.23-19.48Q97.72-18.04 98.14-16.69 98.55-15.33 98.87-14.01L98.87-14.01ZM132.29 0.61L132.29 0.61Q128.7 0.61 126.59-1.4 124.48-3.42 124.48-6.96L124.48-6.96Q124.48-8.79 125.15-10.36 125.82-11.94 127.49-13.15 129.16-14.36 132.18-15.09 135.2-15.82 139.88-15.94L139.88-15.94Q139.88-18.16 138.77-19.14 137.66-20.12 135.44-20.12L135.44-20.12Q133.44-20.12 132.17-19.43 130.9-18.75 130.58-18.51L130.58-18.51Q130.24-18.21 129.75-18.29L129.75-18.29Q129.09-18.38 128.35-18.63 127.6-18.87 126.75-19.19L126.75-19.19Q126.63-19.24 126.48-19.35 126.33-19.46 126.31-19.68L126.31-19.68Q126.31-19.8 126.33-19.98 126.36-20.17 126.45-20.65L126.45-20.65Q126.55-21.14 126.75-21.86 126.94-22.58 127.11-22.97L127.11-22.97Q127.33-23.39 127.85-23.75L127.85-23.75Q128.26-24.1 130.36-24.85 132.46-25.61 136.44-25.61L136.44-25.61Q147.4-25.61 147.4-14.94L147.4-14.94 147.4-1.12Q147.4-0.66 147.15-0.33 146.89 0 146.28 0L146.28 0 142.62 0Q142.23 0 141.92-0.11 141.62-0.22 141.35-0.54L141.35-0.54 139.83-2.49 139.66-2.49Q138.54-0.85 136.65-0.12 134.76 0.61 132.29 0.61ZM134.98-5.05L134.98-5.05Q137.22-5.05 138.37-6.2 139.52-7.35 139.83-8.57L139.83-8.57 139.83-11.28Q136.44-11.28 134.74-10.75 133.05-10.23 132.49-9.39 131.92-8.54 131.92-7.57L131.92-7.57Q131.92-6.15 132.8-5.6 133.68-5.05 134.98-5.05ZM166.25 0.61L166.25 0.61Q162.12 0.61 159.07-0.72 156.02-2.05 154.33-4.86 152.65-7.67 152.65-12.11L152.65-12.11Q152.65-18.77 156.07-22.19 159.48-25.61 165.15-25.61L165.15-25.61Q168.84-25.61 171.39-24.29 173.94-22.97 175.27-20.65 176.6-18.33 176.6-15.36L176.6-15.36Q176.6-12.45 175.11-11.3 173.62-10.16 170.76-10.16L170.76-10.16 160.29-10.16Q160.49-7.64 162.13-6.32 163.78-5 166.61-5L166.61-5Q168.86-5 170.21-5.68 171.57-6.35 172.11-6.74L172.11-6.74Q172.57-7.08 173.16-7.06L173.16-7.06Q173.62-7.06 174.49-6.87 175.35-6.69 176.21-6.2L176.21-6.2Q176.82-5.88 176.82-5.32L176.82-5.32Q176.82-5 176.7-4.42L176.7-4.42Q176.62-4.08 176.45-3.43 176.28-2.78 176.01-2.22L176.01-2.22Q175.87-1.95 175.55-1.71L175.55-1.71Q175.06-1.37 173.97-0.81 172.89-0.24 171.01 0.18 169.13 0.61 166.25 0.61ZM160.24-15.16L160.24-15.16 168.2-15.16Q169.45-15.16 169.45-16.31L169.45-16.31Q169.45-18.04 168.36-19.23 167.27-20.41 165.1-20.41L165.1-20.41Q162.73-20.41 161.62-18.9 160.51-17.38 160.24-15.16ZM188.93 0.61L188.93 0.61Q186.31 0.61 184.59 0.17 182.87-0.27 181.83-0.89 180.8-1.51 180.21-2.03L180.21-2.03Q179.77-2.44 180.11-2.95L180.11-2.95 182.6-6.64Q183.14-7.42 183.82-6.74L183.82-6.74Q184.53-6.05 185.74-5.41 186.95-4.76 188.75-4.76L188.75-4.76Q190.37-4.76 191.4-5.31 192.44-5.86 192.44-6.91L192.44-6.91Q192.44-7.64 191.98-8.11 191.51-8.57 190.34-9.06 189.17-9.55 187.07-10.3L187.07-10.3Q183.97-11.43 182.38-13.01 180.8-14.6 180.8-17.65L180.8-17.65Q180.8-20.46 182.35-22.22 183.9-23.97 186.33-24.79 188.75-25.61 191.39-25.61L191.39-25.61Q194.74-25.61 196.09-24.99 197.45-24.37 197.84-24.02L197.84-24.02Q198.2-23.71 198.35-23.29L198.35-23.29Q198.67-22.34 198.84-20.78L198.84-20.78Q198.94-19.87 198.37-19.58L198.37-19.58Q198.08-19.41 197.45-19.21 196.81-19.02 196.18-18.87 195.54-18.73 195.22-18.73L195.22-18.73Q195.13-18.73 195.02-18.79 194.91-18.85 194.64-19.09L194.64-19.09Q194.32-19.41 193.55-19.82 192.78-20.24 191.44-20.24L191.44-20.24Q190.12-20.24 189.23-19.81 188.34-19.38 188.34-18.31L188.34-18.31Q188.34-17.14 189.47-16.55 190.61-15.97 193.22-15.04L193.22-15.04Q195.27-14.33 196.8-13.49 198.32-12.65 199.15-11.29 199.99-9.94 199.99-7.64L199.99-7.64Q199.99-4.66 198.36-2.84 196.74-1.03 194.21-0.21 191.68 0.61 188.93 0.61ZM214.63 0.61L214.63 0.61Q206.48 0.61 206.48-7.86L206.48-7.86 206.48-19.31 203.72-19.31Q202.99-19.31 202.7-19.62 202.42-19.92 202.42-20.65L202.42-20.65 202.42-23.66Q202.42-24.39 202.7-24.69 202.99-25 203.72-25L203.72-25 206.48-25 206.48-28.93Q206.48-29.52 206.72-29.83L206.72-29.83Q207.75-31.18 209.72-32.74L209.72-32.74Q210.07-32.98 210.33-32.98L210.33-32.98Q210.63-32.98 210.92-32.74L210.92-32.74Q211.97-31.93 212.69-31.23 213.41-30.52 213.92-29.83L213.92-29.83Q214.17-29.52 214.17-28.93L214.17-28.93 214.17-25 218.49-25Q219.22-25 219.5-24.69 219.78-24.39 219.78-23.66L219.78-23.66 219.78-20.65Q219.78-19.92 219.5-19.62 219.22-19.31 218.49-19.31L218.49-19.31 214.17-19.31 214.17-9.2Q214.17-5.3 217-5.3L217-5.3Q217.44-5.3 217.8-5.38 218.17-5.47 218.44-5.57L218.44-5.57Q218.95-5.76 219.16-5.71 219.37-5.66 219.54-5.18L219.54-5.18 220.95-1.39Q221.17-0.78 220.66-0.51L220.66-0.51Q220.3-0.34 218.89 0.13 217.49 0.61 214.63 0.61ZM232.74-22.17L232.74-20.36 232.84-20.36Q234.67-25.44 239.43-25.44L239.43-25.44Q240.04-25.44 240.43-25.38 240.82-25.32 240.97-25.27L240.97-25.27Q241.34-25.15 241.34-24.71L241.34-24.71 241.34-18.82Q241.34-18.07 240.46-18.41L240.46-18.41Q240.17-18.53 239.62-18.66 239.07-18.8 238.09-18.8L238.09-18.8Q235.58-18.8 234.16-16.96 232.74-15.11 232.74-11.94L232.74-11.94 232.74-1.29Q232.74-0.56 232.44-0.28 232.13 0 231.4 0L231.4 0 226.37 0Q225.64 0 225.33-0.28 225.03-0.56 225.03-1.29L225.03-1.29 225.03-21.75Q225.03-22.34 225.27-22.66L225.27-22.66Q225.79-23.34 226.51-24.05 227.23-24.76 228.28-25.56L228.28-25.56Q228.47-25.71 228.67-25.76 228.86-25.81 229.01-25.81L229.01-25.81Q229.35-25.81 229.69-25.56L229.69-25.56Q231.72-23.97 232.52-22.85L232.52-22.85Q232.74-22.56 232.74-22.17L232.74-22.17ZM256.96 0.61L256.96 0.61Q250.81 0.61 247.22-2.66 243.63-5.93 243.63-12.4L243.63-12.4Q243.63-19.04 247.35-22.33 251.08-25.61 257.3-25.61L257.3-25.61Q263.31-25.61 266.92-22.38 270.53-19.14 270.53-12.84L270.53-12.84Q270.53-6.27 266.92-2.83 263.31 0.61 256.96 0.61ZM257.2-5.3L257.2-5.3Q259.89-5.3 261.26-6.97 262.62-8.64 262.62-12.7L262.62-12.7Q262.62-16.55 261.24-18.13 259.87-19.7 257.16-19.7L257.16-19.7Q254.54-19.7 253.04-18.01 251.54-16.31 251.54-12.5L251.54-12.5Q251.54-8.52 252.97-6.91 254.4-5.3 257.2-5.3Z" opacity="1" transform="matrix(1,0,0,1,0,0)" fill="#ffffff" class="wordmark-text-0" data-fill-palette-color="quaternary" id="text-0"></path></svg></g></svg></g></svg></g></svg></g><g transform="matrix(1,0,0,1,109.36397022492243,0)"><svg viewBox="0 0 176.79205955015513 270.4363371670692" height="270.4363371670692" width="176.79205955015513"><g><svg xmlns="http://www.w3.org/2000/svg" xmlns:xlink="http://www.w3.org/1999/xlink" version="1.1" x="0" y="0" viewBox="20.584 5.000983973972417 58.833 89.99601602602758" enable-background="new 0 0 100 100" xml:space="preserve" height="270.4363371670692" width="176.79205955015513" class="icon-icon-0" data-fill-palette-color="accent" id="icon-0"><g fill="#085f63" data-fill-palette-color="accent"><path d="M66.12 59.854A21.53 21.53 0 0 0 71.388 45.732 21.5 21.5 0 0 0 71.002 41.728H76.546A1.521 1.521 0 1 0 76.546 38.683H73.253C73.46 37.292 73.565 35.879 73.565 34.469 73.565 26.841 70.547 19.982 65.759 15.215A7.4 7.4 0 0 0 63.601 10.315 7.4 7.4 0 0 0 58.359 8.139H58.197C58.145 8.083 58.096 8.024 58.042 7.97V7.961C56.707 6.627 54.843 5.747 52.847 5.322A14.7 14.7 0 0 0 49.77 5.001C48.737 5.001 47.714 5.11 46.702 5.322 44.702 5.742 42.835 6.622 41.501 7.956 41.443 8.014 41.392 8.078 41.335 8.137H41.077A7.4 7.4 0 0 0 35.835 10.313 7.4 7.4 0 0 0 33.673 15.289C28.937 20.054 25.96 26.885 25.96 34.468 25.96 35.879 26.065 37.291 26.273 38.682H22.98A1.522 1.522 0 1 0 22.98 41.727H28.523A21.6 21.6 0 0 0 28.137 45.731C28.137 51.218 30.196 56.232 33.576 60.05 25.748 65.341 20.584 74.29 20.584 84.429V93.476C20.584 94.318 21.267 94.997 22.107 94.997H77.894C78.734 94.997 79.417 94.317 79.417 93.476V84.43C79.417 74.16 74.117 65.117 66.12 59.854M33.659 19.984V25.968A1.64 1.64 0 0 0 35.297 27.606H35.615A1.64 1.64 0 0 0 37.252 25.968V15.554C37.252 14.503 37.683 13.546 38.376 12.853A3.8 3.8 0 0 1 39.438 12.101V12.813C39.437 12.847 39.433 12.879 39.433 12.913V21.523A1.64 1.64 0 0 0 41.071 23.16H41.385C42.286 23.16 43.023 22.425 43.023 21.523V21.363H43.032V12.864A3.34 3.34 0 0 1 44.041 10.496C44.866 9.671 46.088 9.113 47.432 8.83 48.223 8.664 49.002 8.58 49.771 8.58 50.536 8.58 51.313 8.663 52.104 8.83 53.454 9.117 54.679 9.677 55.503 10.501L55.507 10.498C55.942 10.935 56.251 11.466 56.405 12.08V21.524A1.64 1.64 0 0 0 58.042 23.161H58.36C59.262 23.161 59.999 22.425 59.999 21.524V21.078H60.109V12.914C60.109 12.651 60.093 12.394 60.067 12.143A3.82 3.82 0 0 1 62.182 15.555L62.184 25.969A1.64 1.64 0 0 0 63.822 27.607H64.139A1.64 1.64 0 0 0 65.776 25.969V19.874C68.734 23.847 70.52 28.925 70.52 34.468 70.52 35.723 70.427 36.981 70.245 38.219H29.281A25.4 25.4 0 0 1 29.005 34.468C29.005 28.979 30.755 23.941 33.659 19.984M37.761 63.711V75.592H34.436V63.168A27 27 0 0 1 35.801 62.227 22 22 0 0 0 37.761 63.711M40.807 75.592V65.408A21.5 21.5 0 0 0 49.762 67.357C52.851 67.357 55.787 66.701 58.447 65.531V75.592zM34.436 78.637H64.812V91.953H34.436zM61.492 75.592V63.885A22 22 0 0 0 63.928 62.051C64.229 62.239 64.52 62.44 64.812 62.639V75.592zM31.629 41.728H67.881C68.176 43.035 68.343 44.369 68.343 45.732 68.343 52.733 64.448 58.84 58.712 62.008H58.446V62.151A18.5 18.5 0 0 1 49.761 64.313C39.516 64.313 31.181 55.977 31.181 45.732 31.182 44.369 31.341 43.033 31.629 41.728M23.629 84.43C23.629 77.151 26.603 70.559 31.39 65.784V91.954H23.629zM76.371 91.953H67.857V65.057C73.085 69.879 76.371 76.774 76.371 84.43z" fill="#085f63" data-fill-palette-color="accent"></path><circle cx="36.853" cy="81.446" r="1.4" fill="#085f63" data-fill-palette-color="accent"></circle><circle cx="62.133" cy="81.446" r="1.4" fill="#085f63" data-fill-palette-color="accent"></circle><polygon points="60.666,21.078 60.108,21.078 60.108,21.365  " fill="#085f63" data-fill-palette-color="accent"></polygon></g></svg></g></svg></g><g></g></svg></g><defs></defs></svg><rect width="257.2403088572584" height="247.2" fill="none" stroke="none" visibility="hidden"></rect></g></svg></g></svg>