<svg xmlns="http://www.w3.org/2000/svg" version="1.1" xmlns:xlink="http://www.w3.org/1999/xlink" xmlns:svgjs="http://svgjs.dev/svgjs" width="2000" height="1351" viewBox="0 0 2000 1351"><g transform="matrix(1,0,0,1,-1.1460527853141684,-2.1790322580645807)"><svg viewBox="0 0 367 248" data-background-color="#ffffff" preserveAspectRatio="xMidYMid meet" height="1351" width="2000" xmlns="http://www.w3.org/2000/svg" xmlns:xlink="http://www.w3.org/1999/xlink"><g id="tight-bounds" transform="matrix(1,0,0,1,0.21030068610514263,0.4000000000000057)"><svg viewBox="0 0 366.5793986277897 247.2" height="247.2" width="366.5793986277897"><g><svg viewBox="0 0 395.52 266.7158721029885" height="247.2" width="366.5793986277897"><g><svg viewBox="0 0 395.52 66.67770114942529" height="66.67770114942529" width="395.52"><g id="textblocktransform"><svg viewBox="0 0 395.52 66.67770114942529" height="66.67770114942529" width="395.52" id="textblock"><g><svg viewBox="0 0 395.52 66.67770114942529" height="66.67770114942529" width="395.52"><g transform="matrix(1,0,0,1,0,0)"><svg width="395.52" viewBox="1.25 -36.2 221.82 37.400000000000006" height="66.67770114942529" data-palette-color="#c53683"><path d="M2.7-19.45L2.7-19.45 2.45-28.9Q2.45-31.15 1.95-32.45 1.45-33.75 1.45-33.85L1.45-33.85Q1.45-34.95 4.83-35.55 8.2-36.15 9.98-36.15 11.75-36.15 11.9-35.3L11.9-35.3Q15.05-21.25 17.2-15.8L17.2-15.8Q17.45-15.2 17.73-15.2 18-15.2 18.2-15.65L18.2-15.65Q21.55-25.1 24.1-34.35L24.1-34.35Q24.3-34.95 25.1-35.27 25.9-35.6 27.88-35.9 29.85-36.2 31.8-36.2 33.75-36.2 33.75-35.4L33.75-35.4Q33.75-35.35 33.6-34.63 33.45-33.9 33.3-32.85 33.15-31.8 32.95-30.3L32.95-30.3Q32.5-26.85 32.38-22.38 32.25-17.9 32.25-13.4L32.25-13.4 32.35-8.15Q32.35-4.55 32.83-3.03 33.3-1.5 33.3-1.28 33.3-1.05 32.95-0.75L32.95-0.75Q31.4 0.5 28.25 0.5L28.25 0.5Q26.25 0.5 26-0.85L26-0.85Q25.85-1.55 25.85-3.08 25.85-4.6 26.15-12.45 26.45-20.3 26.45-23.88 26.45-27.45 26.05-27.45L26.05-27.45Q26-27.45 26-27.43 26-27.4 25.85-27.35 25.7-27.3 25.08-25.8 24.45-24.3 22.6-18.4 20.75-12.5 19.25-7.38 17.75-2.25 17.6-1.85L17.6-1.85Q17.05-0.5 15.5-0.5L15.5-0.5Q14.75-0.5 14.3-1.05L14.3-1.05Q12.7-8.45 8.6-22.2L8.6-22.2 7.2-26.75Q7.1-27 7-27L7-27Q6.75-27 6.65-26.65L6.65-26.65Q6.45-23.4 6.45-13.88 6.45-4.35 7.15-1.85L7.15-1.85Q7.2-1.75 7.2-1.55L7.2-1.55Q7.2-0.5 5.55-0.03 3.9 0.45 2.58 0.45 1.25 0.45 1.25-0.15L1.25-0.15Q1.25-0.2 1.5-0.95L1.5-0.95Q2.25-3.5 2.48-8.35 2.7-13.2 2.7-19.45ZM41.4-26.75L41.4-26.75 40.2-26.8Q38.85-26.8 38.45-26.15L38.45-26.15Q38.35-26 38.2-26L38.2-26Q37.55-26 37.55-28.23 37.55-30.45 38.22-31.05 38.9-31.65 40.57-31.65 42.25-31.65 42.85-31.08 43.45-30.5 43.45-29.15 43.45-27.8 43-27.28 42.55-26.75 41.4-26.75ZM37.4-1.5L37.4-1.5 37.95-13.15Q37.95-17.3 37-18.8L37-18.8Q36.7-19.3 36.3-19.55L36.3-19.55Q36-19.65 36-19.95L36-19.95Q36-20.85 38.55-21.7 41.1-22.55 42.27-22.55 43.45-22.55 43.5-21.95L43.5-21.95Q43.5-20.95 43.22-16.28 42.95-11.6 42.95-6.45 42.95-1.3 43.55-0.05L43.55-0.05Q43.7 0.2 43.7 0.45L43.7 0.45Q43.7 1.1 41.8 1.1 39.9 1.1 37.9 0.1L37.9 0.1Q37.4-0.15 37.4-1.5ZM67.09-20.95L67.09-20.95Q67.29-20.95 67.84-20.55 68.39-20.15 68.99-20.15L68.99-20.15 69.04-20.15Q70.74-20.15 71.74-21.5 72.74-22.85 72.84-24.2L72.84-24.2 72.99-25.55Q72.99-27.45 72.42-28.83 71.84-30.2 71.09-30.88 70.34-31.55 69.34-31.9L69.34-31.9Q68.09-32.4 66.72-32.4 65.34-32.4 64.49-32.13 63.64-31.85 63.54-31.6L63.54-31.6 63.49-31.3Q63.04-24.55 63.04-19.23 63.04-13.9 63.22-10.05 63.39-6.2 63.57-4.13 63.74-2.05 63.74-1.85L63.74-1.85Q63.74-0.6 61.54 0.15 59.34 0.9 57.19 0.9L57.19 0.9Q56.19 0.9 56.19 0.4L56.19 0.4Q56.19 0.25 56.34-0.3L56.34-0.3Q57.29-2.5 57.29-20.75L57.29-20.75Q57.29-31.5 55.84-33.05L55.84-33.05Q55.54-33.35 55.54-33.68 55.54-34 56.27-34.4 56.99-34.8 60.34-35.33 63.69-35.85 67.44-35.85L67.44-35.85Q73.34-35.85 76.32-32.65 79.29-29.45 79.29-25.03 79.29-20.6 76.87-17.35 74.44-14.1 70.54-14.1L70.54-14.1Q69.29-14.1 68.04-14.55L68.04-14.55Q65.54-15.45 65.54-18.3L65.54-18.3Q65.54-18.9 65.94-19.93 66.34-20.95 67.09-20.95ZM95.34-15L95.34-15 95.24-8.6Q95.24-1.95 96.69-0.6L96.69-0.6Q96.89-0.4 96.89-0.15L96.89-0.15Q96.89 0.6 93.67 0.6 90.44 0.6 90.24-1.3L90.24-1.3Q90.19-1.75 90.19-3.15L90.19-3.15 90.39-11.15Q90.39-11.5 89.99-11.5L89.99-11.5Q87.59-11.5 85.49-10.15 83.39-8.8 83.39-6.7L83.39-6.7Q83.39-5.6 83.99-4.85 84.59-4.1 85.47-4.1 86.34-4.1 86.92-4.45 87.49-4.8 87.59-4.85L87.59-4.85Q88.44-4.75 88.44-3.08 88.44-1.4 86.89-0.38 85.34 0.65 83.64 0.65 81.94 0.65 80.72 0.05 79.49-0.55 78.94-1.3 78.39-2.05 78.04-3L78.04-3Q77.69-4.15 77.69-5L77.69-5Q77.69-8.5 79.89-10.6 82.09-12.7 85.54-13.6L85.54-13.6Q90.09-14.5 90.29-15.25L90.29-15.25Q90.44-15.8 90.44-17.1L90.44-17.1Q90.44-19.75 87.74-19.75L87.74-19.75Q86.59-19.75 85.69-19.03 84.79-18.3 84.79-17.2L84.79-17.2 85.09-16Q84.99-15.15 83.29-15L83.29-15 82.74-14.95Q81.24-14.95 80.37-15.7 79.49-16.45 79.49-17.7L79.49-17.7Q79.49-18.5 80.02-19.48 80.54-20.45 81.34-21.05 82.14-21.65 83.82-22.13 85.49-22.6 87.04-22.6 88.59-22.6 89.44-22.5 90.29-22.4 91.77-22.03 93.24-21.65 94.22-20.6 95.19-19.55 95.27-18.38 95.34-17.2 95.34-15ZM98.39 0.35L98.39 0.35Q99.29-5.05 99.29-12.6 99.29-20.15 98.84-22.4L98.84-22.4Q98.84-23.05 100.34-23.05L100.34-23.05Q102.64-23.05 103.39-21.3L103.39-21.3Q103.44-21.15 103.64-21.15 103.84-21.15 103.94-21.25L103.94-21.25Q105.49-22.85 108.74-22.85 111.99-22.85 113.89-21.2 115.79-19.55 115.79-16.4L115.79-16.4Q115.79-14.5 115.46-11 115.14-7.5 115.14-5.8L115.14-5.8Q115.14-1.75 116.49 0.05L116.49 0.05Q116.69 0.3 116.69 0.55L116.69 0.55Q116.69 1.2 115.29 1.2L115.29 1.2Q109.09 1.2 109.09-4.3L109.09-4.3Q109.09-6.4 110.04-10.15 110.99-13.9 110.99-15.85L110.99-15.85Q110.99-19.85 107.69-19.85L107.69-19.85Q106.09-19.85 105.26-18.9 104.44-17.95 104.34-16.73 104.24-15.5 104.24-12.1L104.24-12.1Q104.24-6.9 104.59-3.05L104.59-3.05 104.69-1.95Q104.69-0.55 102.86 0.23 101.04 1 99.71 1 98.39 1 98.39 0.35ZM135.04-15L135.04-15 134.94-8.6Q134.94-1.95 136.39-0.6L136.39-0.6Q136.59-0.4 136.59-0.15L136.59-0.15Q136.59 0.6 133.36 0.6 130.14 0.6 129.94-1.3L129.94-1.3Q129.89-1.75 129.89-3.15L129.89-3.15 130.09-11.15Q130.09-11.5 129.69-11.5L129.69-11.5Q127.29-11.5 125.19-10.15 123.09-8.8 123.09-6.7L123.09-6.7Q123.09-5.6 123.69-4.85 124.29-4.1 125.16-4.1 126.04-4.1 126.61-4.45 127.19-4.8 127.29-4.85L127.29-4.85Q128.14-4.75 128.14-3.08 128.14-1.4 126.59-0.38 125.04 0.65 123.34 0.65 121.64 0.65 120.41 0.05 119.19-0.55 118.64-1.3 118.09-2.05 117.74-3L117.74-3Q117.39-4.15 117.39-5L117.39-5Q117.39-8.5 119.59-10.6 121.79-12.7 125.24-13.6L125.24-13.6Q129.79-14.5 129.99-15.25L129.99-15.25Q130.14-15.8 130.14-17.1L130.14-17.1Q130.14-19.75 127.44-19.75L127.44-19.75Q126.29-19.75 125.39-19.03 124.49-18.3 124.49-17.2L124.49-17.2 124.79-16Q124.69-15.15 122.99-15L122.99-15 122.44-14.95Q120.94-14.95 120.06-15.7 119.19-16.45 119.19-17.7L119.19-17.7Q119.19-18.5 119.71-19.48 120.24-20.45 121.04-21.05 121.84-21.65 123.51-22.13 125.19-22.6 126.74-22.6 128.29-22.6 129.14-22.5 129.99-22.4 131.46-22.03 132.94-21.65 133.91-20.6 134.89-19.55 134.96-18.38 135.04-17.2 135.04-15ZM148.08-22.45L148.08-22.45Q148.98-22.45 149.71-22.23 150.43-22 150.48-22L150.48-22 150.78-22.25 150.58-27.7Q150.48-29.1 149.98-30.1 149.48-31.1 149.08-31.4L149.08-31.4 148.63-31.65Q148.33-31.85 148.33-32.1L148.33-32.1Q148.33-32.85 150.66-33.85 152.98-34.85 154.28-34.85 155.58-34.85 155.68-34.3L155.68-34.3Q155.93-32.6 155.93-27.83 155.93-23.05 155.71-18.45 155.48-13.85 155.48-8.03 155.48-2.2 156.23-0.7L156.23-0.7Q156.43-0.35 156.43-0.05L156.43-0.05Q156.43 0.7 154.28 0.7L154.28 0.7Q150.18 0.7 150.18-1.25L150.18-1.25Q150.08-2.05 150.08-3.73 150.08-5.4 150.41-9.98 150.73-14.55 150.73-17.03 150.73-19.5 148.26-19.5 145.78-19.5 144.48-16.6 143.18-13.7 143.18-10.8L143.18-10.8Q143.18-4.65 146.28-4.65L146.28-4.65Q146.73-4.65 147.16-4.83 147.58-5 147.68-5L147.68-5Q148.08-5 148.31-4.5 148.53-4 148.53-3.5L148.53-3.5Q148.53-1.8 147.18-0.63 145.83 0.55 143.88 0.55L143.88 0.55Q140.88 0.55 139.36-2.08 137.83-4.7 137.83-8.6L137.83-8.6Q137.83-13.55 140.18-17.8L140.18-17.8Q141.38-19.9 143.43-21.18 145.48-22.45 148.08-22.45ZM163.43-12.7L163.43-12.7 163.48-11.45Q163.48-11.15 163.88-11.15L163.88-11.15Q165.48-11.3 166.68-11.98 167.88-12.65 168.48-13.5L168.48-13.5Q169.68-15.35 169.78-16.7L169.78-16.7 169.83-17.3Q169.83-20 167.68-20L167.68-20Q166.08-20 165.08-18.6L165.08-18.6Q163.43-16.4 163.43-12.7ZM174.33-6.05L174.33-6.05Q174.33-4.15 173.56-2.73 172.78-1.3 171.81-0.63 170.83 0.05 169.53 0.45L169.53 0.45Q167.88 0.95 166.38 0.95L166.38 0.95Q162.18 0.95 160.18-2.2 158.18-5.35 158.18-10.23 158.18-15.1 160.66-18.9 163.13-22.7 168.08-22.7L168.08-22.7Q172.58-22.7 174.18-19.55L174.18-19.55Q174.83-18.35 174.83-17.28 174.83-16.2 174.73-15.58 174.63-14.95 174.03-13.7 173.43-12.45 172.43-11.45 171.43-10.45 169.28-9.55 167.13-8.65 164.23-8.35L164.23-8.35Q163.83-8.35 163.83-8L163.83-8Q163.83-7.55 164.16-6.68 164.48-5.8 164.88-5.2L164.88-5.2Q165.98-3.8 168.13-3.8L168.13-3.8Q170.28-3.8 171.78-5.2L171.78-5.2Q172.58-5.95 173.08-7.05L173.08-7.05Q173.28-7.45 173.61-7.45 173.93-7.45 174.13-6.9 174.33-6.35 174.33-6.05ZM192.08-17.2L191.83-13.4 192.03-11.65Q192.03-10.7 190.23-10.7L190.23-10.7Q186.58-10.7 186.58-13.45L186.58-13.45Q186.58-14.1 186.93-15.25 187.28-16.4 187.28-17.25 187.28-18.1 186.78-18.73 186.28-19.35 185.33-19.35 184.38-19.35 183.7-18.68 183.03-18 182.88-17.3L182.88-17.3 182.68-16.6Q182.38-15.05 182.38-11.43 182.38-7.8 182.48-5.73 182.58-3.65 182.68-2.88 182.78-2.1 182.78-1.95L182.78-1.95Q182.78-0.7 181.23 0.08 179.68 0.85 178.13 0.85 176.58 0.85 176.58 0.2L176.58 0.2 176.83-1.35Q177.53-5.7 177.53-12.7 177.53-19.7 177.03-22.2L177.03-22.2Q177.03-22.8 178.08-22.8L178.08-22.8Q180.78-22.8 181.68-20.95L181.68-20.95Q181.73-20.75 181.85-20.75 181.98-20.75 182.53-21.2L182.53-21.2Q184.18-22.55 186.43-22.55L186.43-22.55Q187.83-22.55 189.23-22L189.23-22Q192.08-20.85 192.08-17.2L192.08-17.2ZM199.48-26.75L199.48-26.75 198.28-26.8Q196.93-26.8 196.53-26.15L196.53-26.15Q196.43-26 196.28-26L196.28-26Q195.63-26 195.63-28.23 195.63-30.45 196.3-31.05 196.98-31.65 198.65-31.65 200.33-31.65 200.93-31.08 201.53-30.5 201.53-29.15 201.53-27.8 201.08-27.28 200.63-26.75 199.48-26.75ZM195.48-1.5L195.48-1.5 196.03-13.15Q196.03-17.3 195.08-18.8L195.08-18.8Q194.78-19.3 194.38-19.55L194.38-19.55Q194.08-19.65 194.08-19.95L194.08-19.95Q194.08-20.85 196.63-21.7 199.18-22.55 200.35-22.55 201.53-22.55 201.58-21.95L201.58-21.95Q201.58-20.95 201.3-16.28 201.03-11.6 201.03-6.45 201.03-1.3 201.63-0.05L201.63-0.05Q201.78 0.2 201.78 0.45L201.78 0.45Q201.78 1.1 199.88 1.1 197.98 1.1 195.98 0.1L195.98 0.1Q195.48-0.15 195.48-1.5ZM221.52-15L221.52-15 221.42-8.6Q221.42-1.95 222.87-0.6L222.87-0.6Q223.07-0.4 223.07-0.15L223.07-0.15Q223.07 0.6 219.85 0.6 216.62 0.6 216.42-1.3L216.42-1.3Q216.37-1.75 216.37-3.15L216.37-3.15 216.57-11.15Q216.57-11.5 216.17-11.5L216.17-11.5Q213.77-11.5 211.67-10.15 209.57-8.8 209.57-6.7L209.57-6.7Q209.57-5.6 210.17-4.85 210.77-4.1 211.65-4.1 212.52-4.1 213.1-4.45 213.67-4.8 213.77-4.85L213.77-4.85Q214.62-4.75 214.62-3.08 214.62-1.4 213.07-0.38 211.52 0.65 209.82 0.65 208.12 0.65 206.9 0.05 205.67-0.55 205.12-1.3 204.57-2.05 204.22-3L204.22-3Q203.87-4.15 203.87-5L203.87-5Q203.87-8.5 206.07-10.6 208.27-12.7 211.72-13.6L211.72-13.6Q216.27-14.5 216.47-15.25L216.47-15.25Q216.62-15.8 216.62-17.1L216.62-17.1Q216.62-19.75 213.92-19.75L213.92-19.75Q212.77-19.75 211.87-19.03 210.97-18.3 210.97-17.2L210.97-17.2 211.27-16Q211.17-15.15 209.47-15L209.47-15 208.92-14.95Q207.42-14.95 206.55-15.7 205.67-16.45 205.67-17.7L205.67-17.7Q205.67-18.5 206.2-19.48 206.72-20.45 207.52-21.05 208.32-21.65 210-22.13 211.67-22.6 213.22-22.6 214.77-22.6 215.62-22.5 216.47-22.4 217.95-22.03 219.42-21.65 220.4-20.6 221.37-19.55 221.45-18.38 221.52-17.2 221.52-15Z" opacity="1" transform="matrix(1,0,0,1,0,0)" fill="#c53683" class="wordmark-text-0" data-fill-palette-color="primary" id="text-0"></path></svg></g></svg></g></svg></g></svg></g><g transform="matrix(1,0,0,1,83.45064300135738,82.41870612597701)"><svg viewBox="0 0 228.61871399728523 184.2971659770115" height="184.2971659770115" width="228.61871399728523"><g><svg xmlns="http://www.w3.org/2000/svg" xmlns:xlink="http://www.w3.org/1999/xlink" version="1.1" x="0" y="0" viewBox="5 13.724 90 72.55199999999999" enable-background="new 0 0 100 100" xml:space="preserve" height="184.2971659770115" width="228.61871399728523" class="icon-icon-0" data-fill-palette-color="accent" id="icon-0"><g fill="#c53683" data-fill-palette-color="accent"><path d="M33.371 45.261C33.879 45.261 34.29 44.851 34.29 44.343V39.519A0.918 0.918 0 1 0 32.452 39.519V44.343C32.452 44.851 32.863 45.261 33.371 45.261" fill="#c53683" data-fill-palette-color="accent"></path><path d="M46.214 37.602A0.917 0.917 0 0 0 47.513 37.602 0.92 0.92 0 0 0 47.513 36.303L44.102 32.889A0.92 0.92 0 0 0 42.803 34.189z" fill="#c53683" data-fill-palette-color="accent"></path><path d="M19.897 37.874A0.9 0.9 0 0 0 20.548 37.603L23.945 34.189A0.919 0.919 0 1 0 22.642 32.894L19.245 36.307A0.92 0.92 0 0 0 19.897 37.874" fill="#c53683" data-fill-palette-color="accent"></path><path d="M72.424 54.881C68.151 54.881 60.913 55.565 56.939 56.84L58.828 48.36A13.37 13.37 0 0 0 61.795 39.958C61.795 32.534 55.757 26.494 48.334 26.494 47.811 26.494 47.302 26.54 46.844 26.599 46.537 19.448 40.623 13.724 33.397 13.724S20.259 19.448 19.952 26.599C19.494 26.539 18.984 26.494 18.461 26.494 11.039 26.493 5 32.533 5 39.957 5 43.125 6.11 46.04 7.953 48.345L15.826 83.623 16.222 83.733C16.313 83.76 25.371 86.276 33.396 86.276 41.419 86.276 50.481 83.76 50.571 83.733L50.968 83.623 51.79 79.934C52.015 80.164 52.304 80.398 52.674 80.631 57.508 83.914 65.863 85.623 72.424 85.623 83.011 85.623 91.912 81.079 94.255 74.78L94.259 74.787 94.275 74.724C95 72.936 95 70.803 95 70.25 95 61.776 84.873 54.881 72.424 54.881M18.459 27.871C19.213 27.871 19.93 27.978 20.532 28.083L21.339 28.223V27.405C21.339 27.337 21.331 27.266 21.317 27.182 21.317 20.52 26.736 15.103 33.396 15.103 40.058 15.103 45.478 20.52 45.474 27.195L45.455 28.223 46.262 28.083C46.864 27.979 47.579 27.871 48.333 27.871 54.994 27.871 60.414 33.293 60.414 39.957 60.414 43.154 59.155 46.061 57.115 48.223 57.026 48.32 56.941 48.42 56.847 48.514 56.662 48.697 56.463 48.869 56.266 49.041 56.155 49.14 56.043 49.241 55.927 49.335 55.73 49.495 55.526 49.644 55.32 49.791A10 10 0 0 1 54.304 50.44C54.148 50.53 53.992 50.613 53.832 50.695 53.632 50.799 53.43 50.898 53.222 50.99 53.036 51.072 52.848 51.145 52.659 51.219 52.467 51.29 52.275 51.366 52.078 51.431 51.856 51.502 51.631 51.564 51.404 51.621 51.227 51.667 51.055 51.717 50.875 51.757 50.604 51.815 50.329 51.856 50.053 51.894 49.909 51.915 49.77 51.944 49.623 51.962A13 13 0 0 1 48.333 52.031C45.802 52.031 43.36 51.229 41.27 49.712L40.865 49.417 40.46 49.712A12 12 0 0 1 33.397 51.986C32.154 51.986 30.911 51.798 29.717 51.419A11.9 11.9 0 0 1 26.334 49.712L25.928 49.417 25.523 49.712A12.1 12.1 0 0 1 20.338 51.883 12 12 0 0 1 17.168 51.96C17.027 51.943 16.89 51.915 16.75 51.897 16.47 51.857 16.189 51.814 15.914 51.756 15.741 51.716 15.573 51.668 15.402 51.623A12 12 0 0 1 14.708 51.426C14.519 51.365 14.333 51.293 14.147 51.222A11 11 0 0 1 13.561 50.983C13.361 50.896 13.167 50.798 12.973 50.7A12 12 0 0 1 11.882 50.07C11.736 49.974 11.594 49.872 11.452 49.771 11.255 49.631 11.06 49.49 10.872 49.337 10.745 49.234 10.622 49.122 10.499 49.014 10.312 48.849 10.122 48.687 9.945 48.512 9.846 48.411 9.757 48.303 9.661 48.202A12.02 12.02 0 0 1 6.38 39.955C6.378 33.293 11.797 27.871 18.459 27.871M40.865 51.11A13.3 13.3 0 0 0 46.742 53.291L42.645 84.03A67 67 0 0 1 37.344 84.715L38.736 52.248A13 13 0 0 0 40.865 51.11M25.928 51.11A13 13 0 0 0 27.942 52.203L29.332 84.705A70 70 0 0 1 24.031 84.01L19.94 53.302A13.3 13.3 0 0 0 25.928 51.11M9.791 50.251C10.151 50.554 10.53 50.83 10.916 51.093L11.02 51.159C11.329 51.363 11.645 51.557 11.969 51.734 12.052 51.779 12.137 51.822 12.221 51.867 12.5 52.013 12.783 52.151 13.071 52.278 13.189 52.328 13.309 52.379 13.43 52.425 13.692 52.532 13.957 52.629 14.227 52.72 14.37 52.766 14.512 52.813 14.656 52.856 14.915 52.931 15.178 52.997 15.442 53.057 15.594 53.092 15.747 53.128 15.901 53.159 16.182 53.215 16.466 53.255 16.753 53.291 16.891 53.309 17.028 53.332 17.168 53.345 17.595 53.388 18.026 53.411 18.46 53.411 18.495 53.411 18.528 53.403 18.563 53.402L22.607 83.756A82 82 0 0 1 16.99 82.512zM30.714 84.809L29.344 52.739C31.936 53.553 34.736 53.575 37.333 52.786L35.961 84.816C35.103 84.868 34.242 84.899 33.396 84.899A43 43 0 0 1 30.714 84.809M49.803 82.513C48.955 82.737 46.81 83.273 44.069 83.779L48.119 53.396C48.191 53.396 48.262 53.412 48.334 53.412 48.769 53.412 49.198 53.389 49.627 53.346 49.764 53.333 49.899 53.31 50.035 53.292 50.324 53.256 50.612 53.216 50.896 53.16 51.045 53.132 51.192 53.094 51.34 53.062 51.61 53 51.878 52.932 52.145 52.853 52.282 52.814 52.417 52.769 52.554 52.724A13 13 0 0 0 53.376 52.423C53.488 52.375 53.599 52.332 53.709 52.284 54.009 52.153 54.304 52.009 54.594 51.856 54.667 51.819 54.741 51.783 54.814 51.741 55.153 51.557 55.482 51.355 55.804 51.14 55.825 51.125 55.847 51.114 55.867 51.099 56.254 50.837 56.632 50.563 56.992 50.258zM72.424 84.245C65.563 84.245 56.238 82.212 52.123 78.444L52.908 74.918C53.302 75.361 53.824 75.749 54.562 75.98 54.934 76.092 55.494 76.266 56.156 76.266 57.754 76.266 59.121 75.269 60.223 73.301A2.05 2.05 0 0 1 62.029 72.299C62.296 72.299 62.582 72.34 62.88 72.422 64.551 72.889 64.576 74.324 64.574 74.485 64.533 76.032 65.256 79.11 68.28 79.672 68.73 79.755 69.164 79.798 69.568 79.798 72.765 79.798 73.721 77.272 74.287 75.778 74.553 75.08 75.545 74.332 76.594 74.332 77.477 74.332 78.234 74.862 78.786 75.865L78.949 76.169C79.553 77.307 80.565 79.209 82.824 79.209 83.344 79.209 83.903 79.105 84.487 78.896 88.066 77.624 87.713 74.371 87.58 73.147 87.431 71.779 87.634 70.056 89.449 69.618 90.977 69.245 92.508 71.137 93.356 72.859 92.209 79.366 83.268 84.245 72.424 84.245M93.62 70.62C92.638 69.249 90.977 67.827 89.124 68.28 86.981 68.797 85.919 70.626 86.21 73.294 86.388 74.938 86.381 76.761 84.025 77.598A3.6 3.6 0 0 1 82.824 77.831C81.5 77.831 80.839 76.787 80.167 75.523L79.995 75.202C79.196 73.75 77.987 72.953 76.594 72.953 75.052 72.953 73.506 73.956 72.947 75.426 72.401 76.869 71.586 78.883 68.532 78.318 65.914 77.832 65.95 74.655 65.953 74.526 65.983 73.609 65.458 71.711 63.251 71.094A4.6 4.6 0 0 0 62.03 70.919 3.42 3.42 0 0 0 59.022 72.626C58.169 74.148 57.232 74.888 56.157 74.888 55.703 74.888 55.297 74.762 54.971 74.661 54.022 74.367 53.6 73.688 53.356 72.91L54.199 69.131 54.684 66.952 56.592 58.393C60.093 57.016 68.064 56.258 72.424 56.258 84.112 56.258 93.622 62.534 93.622 70.249z" fill="#c53683" data-fill-palette-color="accent"></path><path d="M62.056 62.203C62.056 64.493 66.661 65.692 71.209 65.692 75.758 65.692 80.362 64.493 80.362 62.203 80.362 57.619 62.056 57.619 62.056 62.203M71.209 64.386C66.492 64.386 63.363 63.073 63.363 62.203S66.492 60.016 71.209 60.016 79.055 61.332 79.055 62.203C79.055 63.072 75.927 64.386 71.209 64.386" fill="#c53683" data-fill-palette-color="accent"></path></g></svg></g></svg></g><g></g></svg></g><defs></defs></svg><rect width="366.5793986277897" height="247.2" fill="none" stroke="none" visibility="hidden"></rect></g></svg></g></svg>