<svg xmlns="http://www.w3.org/2000/svg" version="1.1" xmlns:xlink="http://www.w3.org/1999/xlink" xmlns:svgjs="http://svgjs.dev/svgjs" width="2000" height="1500" viewBox="0 0 2000 1500"><rect width="2000" height="1500" fill="#ffffff"></rect><g transform="matrix(0.75,0,0,0.75,249.090909090909,423.89401303186446)"><svg viewBox="0 0 396 172" data-background-color="#ffffff" preserveAspectRatio="xMidYMid meet" height="868" width="2000" xmlns="http://www.w3.org/2000/svg" xmlns:xlink="http://www.w3.org/1999/xlink"><g id="tight-bounds" transform="matrix(1,0,0,1,0.2400000000000091,0.1601071559436491)"><svg viewBox="0 0 395.52 171.6797856881127" height="171.6797856881127" width="395.52"><g><svg viewBox="0 0 395.52 171.6797856881127" height="171.6797856881127" width="395.52"><g><svg viewBox="0 0 732.0648639885987 317.76076800000004" height="171.6797856881127" width="395.52"><g transform="matrix(1,0,0,1,336.5448639885987,74.03305208603088)"><svg viewBox="0 0 395.52 169.69466382793829" height="169.69466382793829" width="395.52"><g id="textblocktransform"><svg viewBox="0 0 395.52 169.69466382793829" height="169.69466382793829" width="395.52" id="textblock"><g><svg viewBox="0 0 395.52 169.69466382793829" height="169.69466382793829" width="395.52"><g transform="matrix(1,0,0,1,0,0)"><svg width="395.52" viewBox="116.42999999999999 -39.26 224.76 89.74000000000001" height="169.69466382793829" data-palette-color="#202046"><svg></svg><svg></svg><g class="wordmark-text-0" data-fill-palette-color="primary" id="text-0"><path transform="translate(186.08,0)" d="M4.05 1.25v-40.51h9.74l7.96 16.85c1.22 2.6 2.27 5.553 3.15 8.86v0h0.2c0.86-3.273 1.91-6.227 3.15-8.86v0l7.96-16.85h9.74v40.51h-6.3v-21.15c0-6.607 0.097-11.407 0.29-14.4v0h-0.24c-1.5 3.973-2.95 7.537-4.35 10.69v0l-7.96 18.07h-4.78l-7.96-18.07c-1.647-3.74-3.097-7.303-4.35-10.69v0h-0.24c0.193 3.107 0.29 7.907 0.29 14.4v0 21.15zM62.89-5l-11.64-23.25h7.34l5.4 11.84c0.553 1.207 1.237 3.21 2.05 6.01v0h0.2c1.107-2.947 1.91-4.95 2.41-6.01v0l5.64-11.84h7.11l-13.55 26.57c-1.533 2.973-3.13 4.997-4.79 6.07v0c-1.627 1.047-3.783 1.57-6.47 1.57v0h-2l-1.68-5.54h2.49c1.233 0 2.257-0.147 3.07-0.44v0c1.547-0.527 2.823-1.79 3.83-3.79v0z" fill="#202046" fill-rule="nonzero" stroke="none" stroke-width="1" stroke-linecap="butt" stroke-linejoin="miter" stroke-miterlimit="10" stroke-dasharray="" stroke-dashoffset="0" font-family="none" font-weight="none" font-size="none" text-anchor="none" style="mix-blend-mode: normal" data-fill-palette-color="primary" opacity="1"></path><path transform="translate(112.38,48.21)" d="M4.05 1.25v-40.51h9.74l7.96 16.85c1.22 2.6 2.27 5.553 3.15 8.86v0h0.2c0.86-3.273 1.91-6.227 3.15-8.86v0l7.96-16.85h9.74v40.51h-6.3v-21.15c0-6.607 0.097-11.407 0.29-14.4v0h-0.24c-1.5 3.973-2.95 7.537-4.35 10.69v0l-7.96 18.07h-4.78l-7.96-18.07c-1.647-3.74-3.097-7.303-4.35-10.69v0h-0.24c0.193 3.107 0.29 7.907 0.29 14.4v0 21.15zM69.34-17.75h2.61v-0.46c0-4.02-1.913-6.03-5.74-6.03v0c-3.58 0-6.803 1.08-9.67 3.24v0l-2.49-4.51c3.76-2.46 7.887-3.69 12.38-3.69v0c4.327 0 7.557 1.247 9.69 3.74v0c1.48 1.707 2.22 4.227 2.22 7.56v0 10.31c0 3.807 0.587 6.753 1.76 8.84v0h-5.95c-0.7-1.353-1.167-2.9-1.4-4.64v0h-0.17c-0.827 1.627-2.16 3-4 4.12v0c-1.5 0.913-3.477 1.37-5.93 1.37v0c-2.913 0-5.323-0.853-7.23-2.56v0c-1.987-1.793-2.98-4.073-2.98-6.84v0c0-6.967 5.633-10.45 16.9-10.45zM71.95-11.01v-2.15h-1.95c-3.813 0-6.67 0.49-8.57 1.47v0c-1.633 0.827-2.45 2.257-2.45 4.29v0c0 1.367 0.49 2.45 1.47 3.25v0c0.927 0.767 2.13 1.15 3.61 1.15v0c1.973 0 3.74-0.7 5.3-2.1v0c1.727-1.533 2.59-3.503 2.59-5.91zM114.21-13.94v1.71h-22c0.113 2.587 0.927 4.687 2.44 6.3v0c1.827 1.9 4.147 2.85 6.96 2.85v0c3.32 0 6.257-1.553 8.81-4.66v0l3.91 3.96c-3.207 4.033-7.65 6.05-13.33 6.05v0c-4.653 0-8.403-1.49-11.25-4.47v0c-2.72-2.86-4.08-6.553-4.08-11.08v0c0-3.68 0.887-6.88 2.66-9.6v0c1.58-2.407 3.687-4.157 6.32-5.25v0c1.807-0.747 3.737-1.12 5.79-1.12v0c3.273 0 6.063 0.913 8.37 2.74v0c2.393 1.853 4.007 4.447 4.84 7.78v0c0.373 1.513 0.56 3.11 0.56 4.79zM92.63-16.99h15.04c-0.133-1.68-0.573-3.08-1.32-4.2v0c-1.42-2.067-3.457-3.1-6.11-3.1v0c-2.373 0-4.327 0.96-5.86 2.88v0c-0.94 1.187-1.523 2.66-1.75 4.42zM118.99-2.05l3.1-4.91c3.147 2.347 6.673 3.52 10.58 3.52v0c3.547 0 5.32-1.06 5.32-3.18v0c0-1.607-2.02-3.087-6.06-4.44v0l-2.54-0.83c-2.993-1.007-5.05-1.927-6.17-2.76v0c-1.827-1.367-2.74-3.31-2.74-5.83v0c0-2.8 1.23-5.04 3.69-6.72v0c1.953-1.333 4.41-2 7.37-2v0c4.493 0 8.53 1.117 12.11 3.35v0l-3.1 5c-2.633-2-5.49-3-8.57-3v0c-1.267 0-2.307 0.227-3.12 0.68v0c-1.013 0.553-1.52 1.36-1.52 2.42v0c0 0.813 0.44 1.513 1.32 2.1v0c0.7 0.487 1.98 1.007 3.84 1.56v0l2.71 0.78c6.527 1.94 9.79 5.083 9.79 9.43v0c0 2.18-0.8 4.123-2.4 5.83v0c-2.013 2.167-5.513 3.25-10.5 3.25v0c-4.847 0-9.217-1.417-13.11-4.25zM154.08-34.55l6.34-2.9v9.2h9.21v4.64h-9.21v16.04c0 1.58 0.19 2.67 0.57 3.27v0c0.5 0.833 1.337 1.25 2.51 1.25v0c1.447 0 2.937-0.57 4.47-1.71v0l1.56 4.54c-2.373 1.513-4.88 2.27-7.52 2.27v0c-2.733 0-4.8-0.813-6.2-2.44v0c-1.153-1.353-1.73-3.307-1.73-5.86v0-17.36h-6.59v-4.64h6.59zM181.96-28.25l-0.56 8.84h0.19c2.167-6.46 5.497-9.69 9.99-9.69v0c1.3 0 2.553 0.253 3.76 0.76v0l-1.69 6.15c-0.907-0.313-1.843-0.47-2.81-0.47v0c-2.487 0-4.56 1.253-6.22 3.76v0c-1.107 1.647-1.88 3.763-2.32 6.35v0 13.8h-6.49v-29.5zM213.57-29.2v0c4.48 0 8.177 1.523 11.09 4.57v0c2.767 2.88 4.15 6.597 4.15 11.15v0c0 4.367-1.237 7.963-3.71 10.79v0c-2.9 3.293-6.767 4.94-11.6 4.94v0c-4.98 0-8.92-1.743-11.82-5.23v0c-2.307-2.8-3.46-6.3-3.46-10.5v0c0-5.84 2.173-10.217 6.52-13.13v0c2.567-1.727 5.51-2.59 8.83-2.59zM213.48-24.19v0c-1.907 0-3.617 0.657-5.13 1.97v0c-2.26 1.953-3.39 4.867-3.39 8.74v0c0 1.827 0.277 3.473 0.83 4.94v0c0.533 1.393 1.297 2.557 2.29 3.49v0c1.5 1.4 3.323 2.1 5.47 2.1v0c2.847 0 5.067-1.197 6.66-3.59v0c1.24-1.873 1.86-4.193 1.86-6.96v0c0-3.207-0.83-5.803-2.49-7.79v0c-1.627-1.933-3.66-2.9-6.1-2.9z" fill="#202046" fill-rule="nonzero" stroke="none" stroke-width="1" stroke-linecap="butt" stroke-linejoin="miter" stroke-miterlimit="10" stroke-dasharray="" stroke-dashoffset="0" font-family="none" font-weight="none" font-size="none" text-anchor="none" style="mix-blend-mode: normal" data-fill-palette-color="primary" opacity="1"></path></g></svg></g></svg></g></svg></g></svg></g><g><svg viewBox="0 0 317.760768 317.76076800000004" height="317.76076800000004" width="317.760768"><g><svg xmlns="http://www.w3.org/2000/svg" xmlns:xlink="http://www.w3.org/1999/xlink" version="1.1" x="0" y="0" viewBox="5.100000000000002 5.300000000000002 89.9 89.90000000000002" style="enable-background:new 0 0 100 100;" xml:space="preserve" height="317.76076800000004" width="317.760768" class="icon-icon-0" data-fill-palette-color="accent" id="icon-0"><path d="M93.3 42.4l-8.7-3.1-2.4-5.9 4-8.3c0.5-1 0.3-2.1-0.5-2.8L78 14.6c-0.7-0.7-1.9-0.9-2.8-0.5l-8.3 4-5.9-2.4-3.1-8.7c-0.4-1-1.3-1.7-2.4-1.7H44.6c-1.1 0-2 0.7-2.4 1.7l-3.1 8.7-5.9 2.4-8.3-4c-1-0.5-2.1-0.3-2.8 0.5l-7.7 7.7c-0.7 0.7-0.9 1.9-0.5 2.8l4 8.3-2.4 5.9-8.7 3.1c-1 0.4-1.7 1.3-1.7 2.4v10.9c0 1.1 0.7 2 1.7 2.4l8.7 3.1 2.4 5.9-4 8.3c-0.5 1-0.3 2.1 0.5 2.8l7.7 7.7c0.7 0.7 1.9 0.9 2.8 0.5l8.3-4 5.9 2.4 3.1 8.7c0.4 1 1.3 1.7 2.4 1.7h10.9c1.1 0 2-0.7 2.4-1.7l3.1-8.7 5.9-2.4 8.3 4c1 0.5 2.1 0.3 2.8-0.5l7.7-7.7c0.7-0.7 0.9-1.9 0.5-2.8l-4-8.3 2.4-5.9 8.7-3.1c1-0.4 1.7-1.3 1.7-2.4V44.8C95 43.7 94.3 42.8 93.3 42.4zM90 53.9l-8.1 2.9c-0.7 0.2-1.2 0.7-1.5 1.4l-3.3 7.9c-0.3 0.7-0.3 1.4 0.1 2l3.7 7.8-5.2 5.2-7.8-3.7c-0.6-0.3-1.4-0.3-2-0.1L58 80.7c-0.7 0.3-1.2 0.8-1.4 1.5l-2.9 8.1h-7.4l-2.9-8.1c-0.2-0.7-0.7-1.2-1.4-1.5l-7.9-3.3c-0.7-0.3-1.4-0.3-2 0.1l-7.8 3.7-5.2-5.2 3.7-7.8c0.3-0.6 0.3-1.4 0.1-2l-3.3-7.9c-0.3-0.7-0.8-1.2-1.5-1.4L10 53.9v-7.4l8.1-2.9c0.7-0.2 1.2-0.7 1.5-1.4l3.3-7.9c0.3-0.7 0.3-1.4-0.1-2l-3.7-7.8 5.2-5.2 7.8 3.7c0.6 0.3 1.4 0.3 2 0.1l7.9-3.3c0.7-0.3 1.2-0.8 1.4-1.5l2.9-8.1h7.4l2.9 8.1c0.2 0.7 0.7 1.2 1.4 1.5l7.9 3.3c0.7 0.3 1.4 0.3 2-0.1l7.8-3.7 5.2 5.2-3.7 7.8c-0.3 0.6-0.3 1.4-0.1 2l3.3 7.9c0.3 0.7 0.8 1.2 1.5 1.4l8.1 2.9V53.9z" fill="#fe633d" data-fill-palette-color="accent"></path><path d="M67.6 58.8l-8.9-6.9c-0.2-0.9-0.7-1.8-1.4-2.3l2.2-2.2c0.6 0.1 1.2 0.2 1.8 0.2 3 0 6-1.6 7.6-4.4 1.7-2.9 1.5-6.6-0.4-9.3-0.2-0.4-0.7-0.5-1.1-0.5-0.4 0-0.8 0.3-1 0.6l-2 3.4L62 37.4l-1-2.1 2-3.4c0.2-0.4 0.2-0.8 0-1.2-0.2-0.4-0.6-0.6-1-0.7-3.4-0.3-6.6 1.4-8.3 4.3-1.1 1.9-1.4 4.1-1 6.2l-3.9 3.9L40 35.7v-2c0-0.5-0.3-0.9-0.7-1.1l-5-2.5c-0.5-0.2-1.1-0.1-1.4 0.2l-2.5 2.5c-0.4 0.4-0.5 1-0.2 1.4l2.5 5c0.2 0.4 0.6 0.7 1.1 0.7h2l8.8 8.8-3.9 3.9c-1.3-0.3-2.7-0.3-4.1 0.1-2.3 0.6-4.1 2.1-5.3 4.1-1.7 2.9-1.5 6.6 0.4 9.3 0.2 0.4 0.7 0.6 1.1 0.5 0.4 0 0.8-0.3 1-0.6l2-3.4 2.4-0.2 1 2.1-2 3.4c-0.2 0.4-0.2 0.8 0 1.2 0.2 0.4 0.6 0.6 1 0.7 0.2 0 0.5 0 0.7 0 3.1 0 6-1.7 7.6-4.4 1.1-1.9 1.4-4.1 1-6.2l2.2-2.2c0.6 0.7 1.4 1.3 2.3 1.4l6.9 8.9c1.2 1.5 3 2.4 5 2.4 3.5 0 6.3-2.8 6.3-6.3C70 61.8 69.1 60 67.6 58.8zM55.8 35.6c0.8-1.4 2.2-2.4 3.7-2.9l-1.1 1.9c-0.2 0.4-0.2 0.8 0 1.2l1.7 3.5c0.2 0.5 0.7 0.7 1.2 0.7l3.9-0.2c0.4 0 0.8-0.3 1-0.6l1.1-1.9c0.4 1.6 0.2 3.2-0.6 4.7-1.7 3-5.6 4-8.5 2.3C55.1 42.4 54.1 38.6 55.8 35.6zM53.7 43.1c0.7 1.3 1.8 2.4 3.2 3.2 0 0 0 0 0 0l-2.8 2.8-0.4 0.4-3.2-3.2L53.7 43.1zM44.2 64.4c-0.8 1.4-2.2 2.4-3.7 2.9l1.1-1.9c0.2-0.4 0.2-0.8 0-1.2l-1.7-3.5c-0.2-0.4-0.6-0.7-1.1-0.7 0 0-0.1 0-0.1 0l-3.9 0.2c-0.4 0-0.8 0.3-1 0.6l-1.1 1.9c-0.4-1.6-0.2-3.2 0.6-4.7 0.8-1.4 2.2-2.5 3.8-2.9 1.6-0.4 3.3-0.2 4.7 0.6C44.9 57.6 45.9 61.4 44.2 64.4zM49.1 54.1l-2.8 2.8c-0.7-1.3-1.8-2.4-3.2-3.2 0 0 0 0 0 0l3.1-3.1 3.2 3.2L49.1 54.1zM37.1 37.9c-0.2-0.2-0.6-0.4-0.9-0.4h-1.7L32.8 34l1.2-1.2 3.5 1.8v1.7c0 0.3 0.1 0.6 0.4 0.9L52 51.3 51.3 52 37.1 37.9zM51.3 55.4l4.1-4.1c0.3 0.1 0.6 0.4 0.7 0.7l-4.1 4.1C51.7 56 51.5 55.8 51.3 55.4zM63.7 67.5c-1.2 0-2.3-0.5-3-1.5l-6.6-8.4 3.4-3.4 8.4 6.6c0.9 0.7 1.5 1.8 1.5 3C67.5 65.8 65.8 67.5 63.7 67.5z" fill="#fe633d" data-fill-palette-color="accent"></path></svg></g></svg></g></svg></g></svg></g><defs></defs></svg><rect width="395.52" height="171.6797856881127" fill="none" stroke="none" visibility="hidden"></rect></g></svg></g></svg>