<svg xmlns="http://www.w3.org/2000/svg" version="1.1" xmlns:xlink="http://www.w3.org/1999/xlink" xmlns:svgjs="http://svgjs.dev/svgjs" width="2000" height="1500" viewBox="0 0 2000 1500"><rect width="2000" height="1500" fill="#ffffff"></rect><g transform="matrix(0.75,0,0,0.75,249.090909090909,301.95964350979625)"><svg viewBox="0 0 396 247" data-background-color="#ffffff" preserveAspectRatio="xMidYMid meet" height="1247" width="2000" xmlns="http://www.w3.org/2000/svg" xmlns:xlink="http://www.w3.org/1999/xlink"><g id="tight-bounds" transform="matrix(1,0,0,1,0.2400000000000091,-0.09999999999999432)"><svg viewBox="0 0 395.52 247.2" height="247.2" width="395.52"><g><svg></svg></g><g><svg viewBox="0 0 395.52 247.2" height="247.2" width="395.52"><g transform="matrix(1,0,0,1,75.54432,52.14429673370209)"><svg viewBox="0 0 244.43135999999998 142.9114065325958" height="142.9114065325958" width="244.43135999999998"><g><svg viewBox="0 0 244.43135999999998 142.9114065325958" height="142.9114065325958" width="244.43135999999998"><g transform="matrix(1,0,0,1,0,74.2676705967965)"><svg viewBox="0 0 244.43135999999998 68.6437359357993" height="68.6437359357993" width="244.43135999999998"><g id="textblocktransform"><svg viewBox="0 0 244.43135999999998 68.6437359357993" height="68.6437359357993" width="244.43135999999998" id="textblock"><g><svg viewBox="0 0 244.43135999999998 68.6437359357993" height="68.6437359357993" width="244.43135999999998"><g transform="matrix(1,0,0,1,0,0)"><svg width="244.43135999999998" viewBox="-1.2087803445276664 -18.62649760427513 181.23654953921383 50.89674760427513" height="68.6437359357993" data-palette-color="#6d285f"><path d="M11.736 22.302c-0.399-0.132-0.634-0.323-0.706-0.572-0.078-0.251-0.04-0.61 0.116-1.078v0l1.41-4.242c0.702-2.113 1.494-4.695 2.374-7.747v0c0.153-0.567 0.406-1.379 0.757-2.436v0c0.639-2.239 1.171-3.998 1.595-5.276v0l0.915-2.594c0.29-0.768 0.595-1.632 0.914-2.593v0c0.278-0.835 0.51-1.587 0.697-2.256v0c0.122-0.472 0.228-0.866 0.318-1.18 0.084-0.316 0.142-0.575 0.174-0.775v0l-0.202 0.292c-1.096 2.158-2.601 4.973-4.515 8.447-1.911 3.468-3.454 6.25-4.628 8.346v0c-1.097 1.841-1.848 3.162-2.254 3.961v0c-0.198 0.384-0.439 0.666-0.724 0.845-0.284 0.179-0.55 0.228-0.797 0.147v0c-0.247-0.082-0.424-0.278-0.531-0.588-0.101-0.308-0.09-0.701 0.033-1.18v0c0.281-1.565 0.872-5.994 1.772-13.289 0.904-7.287 1.321-11.079 1.251-11.376v0c-1.024 2.765-2.114 5.887-3.271 9.366v0c-0.908 2.733-1.713 5.209-2.415 7.428v0c-0.702 2.218-1.507 4.694-2.416 7.427v0c-0.153 0.462-0.349 1.208-0.586 2.239v0l-0.656 2.259c-0.198 0.595-0.44 0.964-0.726 1.107v0c-0.898-0.299-1.079-1.254-0.543-2.867v0l2.589-7.791 1.602-4.695c0.496-1.388 1.039-2.967 1.628-4.738v0c0.681-2.05 1.306-3.876 1.873-5.479v0l1.94-5.52 1.362-4.1c0.053-0.158 0.168-0.274 0.348-0.348 0.181-0.08 0.351-0.094 0.509-0.041v0c0.247 0.082 0.377 0.262 0.389 0.54v0c-0.033 1.029-0.248 4.013-0.646 8.953-0.398 4.94-0.732 8.745-1.002 11.417v0c-0.207 1.554-0.612 4.282-1.213 8.185v0l0.925-1.705c0.282-0.532 0.68-1.263 1.193-2.196v0c1.179-2.299 1.867-3.588 2.065-3.866v0l5.942-10.713 1.221-2.281 1.38-2.44 0.704-1.325c0.135-0.299 0.306-0.509 0.515-0.63 0.215-0.118 0.414-0.147 0.598-0.086v0c0.158 0.053 0.271 0.178 0.338 0.376 0.076 0.194 0.067 0.433-0.028 0.718v0l-1.532 4.612c-0.774 2.328-1.807 5.901-3.099 10.72v0c-1.225 4.426-2.276 7.958-3.153 10.596v0c-0.28 0.841-0.664 2.147-1.154 3.916v0c-0.681 2.261-1.166 3.824-1.453 4.691v0c-0.227 0.683-0.422 1.121-0.584 1.313v0c-0.188 0.141-0.392 0.175-0.613 0.102zM23.871 25.003c-0.097-0.024-0.207-0.121-0.329-0.289-0.129-0.17-0.199-0.304-0.209-0.403v0c0.476-0.692 1.314-3.437 2.515-8.235v0c0.23-0.918 0.515-2.249 0.855-3.992v0l0.602-3.437-0.126-0.691 0.279-0.539c-0.076-0.493-0.173-1.311-0.293-2.454-0.119-1.143-0.235-2.303-0.346-3.478v0c-0.389-3.307-0.591-5.67-0.607-7.09v0c-0.029-0.681-0.024-1.305 0.015-1.872v0l0.801-0.356c0.301 0.144 0.506 1.274 0.615 3.391v0c0.127 1.523 0.211 3.015 0.251 4.474v0l0.121 1.948c0.075 2.115 0.231 3.236 0.467 3.364v0l0.41-0.815-0.038-0.257c0.338-0.252 0.937-1.301 1.798-3.148v0c0.971-2.121 1.838-3.897 2.601-5.327v0c0.859-1.675 1.495-2.461 1.909-2.357v0c0.162 0.04 0.292 0.125 0.391 0.252 0.105 0.129 0.141 0.259 0.109 0.388v0c-0.118 0.472-1.065 2.225-2.842 5.258v0c-0.862 1.44-1.622 2.803-2.281 4.088v0c-0.788 1.528-1.34 2.925-1.657 4.193v0c0.076 0.356 0.086 0.647 0.029 0.873v0c-0.039 0.155-0.139 0.364-0.301 0.626v0c-0.17 0.267-0.278 0.494-0.325 0.681v0c-0.04 0.162-0.158 0.892-0.353 2.19v0c-0.086 0.893-0.204 1.639-0.354 2.241v0c-0.35 1.397-0.647 2.656-0.894 3.776v0l-0.954 3.813-0.048 0.194c-0.541 2.16-1.144 3.157-1.811 2.99zM43.948 28.64c-0.388-0.065-0.488-0.659-0.301-1.783v0c0.27-1.618 0.493-3.061 0.671-4.329v0l0.638-4.375 0.654-3.925c0.16-1.163 0.361-2.471 0.603-3.925v0c0.722-4.334 1.308-8.355 1.758-12.065v0l0.24-1.744c0.219-1.923 0.429-3.484 0.628-4.68v0l0.181-0.173c0.044-0.06 0.123-0.128 0.237-0.204v0c0.049-0.093 0.139-0.146 0.269-0.158v0c0.071-0.022 0.189-0.019 0.354 0.008v0c1.131 0.189 2.114 0.619 2.947 1.293 0.835 0.666 1.466 1.502 1.894 2.505v0c0.835 1.964 1.064 4.077 0.687 6.339v0c-0.242 1.453-0.723 2.901-1.443 4.342-0.72 1.441-1.652 2.695-2.797 3.762v0c-1.188 1.167-2.399 1.763-3.633 1.786v0l-0.797 5.393-0.339 2.64c-0.391 3.118-0.77 5.775-1.136 7.972v0c-0.087 0.519-0.223 0.889-0.408 1.108-0.184 0.213-0.487 0.284-0.907 0.213zM47.834 9.519c0.295 0.015 0.606-0.065 0.933-0.24v0c0.071-0.022 0.208-0.131 0.409-0.327v0c0 0 0.131-0.096 0.393-0.289v0c2.454-1.747 3.945-4.202 4.472-7.365v0c0.301-1.808 0.223-3.548-0.235-5.22v0c-0.253-0.874-0.709-1.605-1.368-2.195-0.665-0.591-1.501-0.97-2.507-1.137v0c-0.307 1.841-0.669 4.62-1.085 8.335v0c-0.423 3.714-0.788 6.492-1.095 8.333v0zM65.612 31.568c-0.484-0.054-0.785-0.145-0.905-0.273-0.12-0.127-0.182-0.44-0.187-0.937v0c-0.032-2.405-0.045-3.906-0.039-4.502v0l-0.03-1.976c-0.697-0.246-1.503-0.42-2.417-0.522v0l-1.738-0.295c-0.771-0.18-1.336-0.291-1.693-0.331v0c-0.199-0.022-0.324 0.044-0.375 0.199v0c-0.011 0.099-0.033 0.147-0.066 0.144v0l-0.209 0.963c-0.092 0.58-0.402 1.733-0.931 3.457v0c-0.257 0.857-0.529 1.517-0.815 1.982v0c-0.321 0.528-0.594 0.779-0.819 0.753v0c-0.199-0.022-0.401-0.135-0.606-0.339-0.205-0.204-0.297-0.406-0.275-0.605v0l0.057-0.144 0.065-0.134c0.849-2.246 1.596-4.487 2.243-6.722v0l0.926-2.965 1.002-3.641c0 0 0.299-1.053 0.897-3.16v0c0.258-0.863 0.708-2.245 1.35-4.145v0c0.705-2.162 1.153-3.644 1.344-4.448v0c0.044-0.096 0.175-0.692 0.392-1.788v0c0.271-1.224 0.489-2.122 0.654-2.694v0c0.188-0.838 0.338-1.314 0.452-1.428v0l0.338 0.038c0.096 0.038 0.211 0.064 0.343 0.078v0c0.391 0.044 0.693-0.02 0.907-0.19v0c0.232 0.026 0.429 0.122 0.591 0.288 0.163 0.166 0.233 0.348 0.211 0.547v0c-0.175 1.557-0.262 3.358-0.264 5.404v0c0.016 1.055 0.019 1.927 0.009 2.617v0c-0.113 4.24-0.085 12.22 0.084 23.939v0l-0.017 0.149c-0.036 0.325-0.196 0.552-0.479 0.681zM63.864 22.476l0.487 0.055c0.2-4.72 0.36-11.706 0.477-20.957v0l-4.105 12.742c-1.162 3.66-1.797 5.977-1.906 6.951v0c-0.019 0.166 0.581 0.38 1.8 0.644 1.224 0.271 2.306 0.46 3.247 0.565zM84.941 32.27c-0.26-0.012-0.442-0.12-0.546-0.325-0.105-0.198-0.198-0.496-0.28-0.893v0c-0.021-0.268-0.078-0.501-0.169-0.698v0l0.057-0.148c-0.19-1.55-0.662-3.457-1.414-5.719v0l-0.764-2.587c-0.064-0.07-0.339-0.92-0.826-2.55v0l-0.337-1.187c-2.534-9.23-4.16-14.238-4.879-15.024v0c-0.3 0.874-0.481 2.014-0.545 3.419v0c-0.034 0.753-0.047 1.406-0.038 1.96v0l-0.036 1.92-0.103 1.177c-0.05 0.358-0.084 0.75-0.103 1.176v0c-0.032 0.719-0.027 1.34 0.016 1.863v0c0.013 1.055 0.019 1.582 0.019 1.582v0l-0.14-0.006c-0.246 5.461-0.268 8.473-0.067 9.036v0l-0.199 4.416c0.121 0.272 0.172 0.622 0.153 1.048v0c-0.012 0.26-0.112 0.482-0.3 0.667-0.189 0.192-0.416 0.282-0.683 0.269v0c-0.686-0.031-0.989-0.929-0.91-2.693v0l0.171-1.574c0.088-0.483 0.146-1.021 0.173-1.614v0c0.07-1.565 0.127-3.922 0.168-7.07v0c0.042-3.148 0.098-5.505 0.169-7.069v0c0.043-0.952 0.159-2.409 0.347-4.369v0c0.187-1.92 0.301-3.357 0.344-4.309v0l0.029-0.639c0.072-1.598 0.412-2.631 1.02-3.097v0l0.143 0.156 0.494-0.078c0.132 0.039 0.274 0.142 0.427 0.31v0c0.127 0.139 0.187 0.292 0.179 0.458v0l0.087 0.295c-0.003 0.067 0.001 0.124 0.012 0.17 0.018 0.054 0.026 0.081 0.027 0.082v0c0.415 2.341 1.444 5.647 3.087 9.918v0c1.666 4.5 2.696 7.479 3.09 8.939v0c0.275 1.16 0.492 2.188 0.652 3.082v0c0.494 2.805 1.134 4.979 1.919 6.523v0l0.106-0.135c1.08-7.232 1.858-16.129 2.333-26.692v0l-0.023-0.592c-0.026-0.168-0.033-0.382-0.021-0.642v0c0.031-0.686 0.273-1.019 0.726-0.998v0c0.3 0.013 0.549 0.172 0.749 0.474 0.2 0.303 0.292 0.634 0.276 0.994v0l-0.148 3.286-0.268 0.379c-0.14 3.11-0.55 8.207-1.229 15.29-0.679 7.083-1.196 10.927-1.55 11.532v0l-0.849 0.162-0.002 0.05-0.047-0.053zM106.001 32.046c-0.486 0.017-0.798-0.029-0.935-0.137-0.137-0.109-0.244-0.408-0.321-0.9v0c-0.382-2.375-0.614-3.858-0.695-4.448v0l-0.317-1.951c-0.725-0.142-1.548-0.197-2.468-0.164v0l-1.762-0.039c-0.789-0.066-1.364-0.093-1.724-0.081v0c-0.2 0.007-0.314 0.091-0.341 0.252v0c0.003 0.1-0.011 0.15-0.045 0.152v0l-0.066 0.983c-0.006 0.587-0.145 1.773-0.417 3.556v0c-0.129 0.885-0.302 1.578-0.519 2.08v0c-0.24 0.569-0.474 0.857-0.7 0.864v0c-0.2 0.007-0.416-0.076-0.649-0.247-0.233-0.172-0.353-0.358-0.36-0.558v0l0.035-0.152 0.045-0.141c0.512-2.346 0.926-4.671 1.24-6.977v0l0.484-3.069 0.46-3.748c0 0 0.143-1.086 0.428-3.257v0c0.129-0.892 0.373-2.324 0.731-4.298v0c0.383-2.241 0.61-3.773 0.682-4.596v0c0.03-0.101 0.072-0.71 0.127-1.826v0c0.09-1.251 0.175-2.171 0.254-2.76v0c0.064-0.856 0.143-1.349 0.239-1.479v0l0.34-0.012c0.101 0.023 0.218 0.032 0.351 0.028v0c0.393-0.014 0.683-0.12 0.87-0.32v0c0.233-0.008 0.442 0.058 0.627 0.198 0.185 0.14 0.281 0.31 0.288 0.51v0c0.054 1.566 0.23 3.361 0.526 5.385v0c0.169 1.041 0.299 1.904 0.39 2.588v0c0.506 4.212 1.697 12.102 3.572 23.671v0l0.005 0.15c0.011 0.326-0.114 0.574-0.375 0.743zM102.947 23.307l0.49-0.017c-0.49-4.699-1.35-11.634-2.582-20.803v0l-2.204 13.204c-0.616 3.79-0.907 6.175-0.873 7.154v0c0.006 0.167 0.63 0.292 1.874 0.376 1.251 0.09 2.349 0.119 3.295 0.086zM113.558 31.2c-0.259 0.024-0.429-0.405-0.511-1.289v0c-0.341-2.238-0.67-5.07-0.988-8.495v0c-0.199-2.151-0.36-4.074-0.484-5.77v0l-0.485-5.78c-0.229-2.476-0.579-5.533-1.05-9.172v0c-0.317-0.238-0.493-0.554-0.529-0.945v0c-0.021-0.226 0.097-0.474 0.352-0.746 0.256-0.271 0.497-0.418 0.723-0.438v0c0.259-0.024 0.517 0.086 0.774 0.33v0l0.578 0.388c0.201 0.075 0.585 0.137 1.152 0.185v0c0.56 0.049 0.958 0.112 1.193 0.191v0c0.515 0.213 1.216 0.657 2.101 1.331v0c0.856 0.711 1.439 1.149 1.749 1.315v0l-0.04 0.104c0.052 0.196 0.337 0.598 0.854 1.206v0c0.404 0.458 0.738 0.886 1.003 1.283v0c0.663 1.452 1.105 3.369 1.326 5.753v0c0.039 0.425 0.057 0.801 0.054 1.129v0l0.109 1.175 0.036 0.389-0.005 0.492c0.058 0.624 0.203 1.106 0.436 1.446v0c-0.103 1.061-0.166 3.055-0.19 5.983v0c-0.021 0.859-0.101 1.77-0.239 2.734-0.144 0.971-0.351 1.78-0.618 2.427v0c-0.702 1.679-1.993 3.164-3.876 4.457v0zM115.139 29.617l1.513-0.14c0.208-0.28 0.401-0.512 0.578-0.696v0c0 0 0.105-0.09 0.317-0.27v0l0.366-0.386c2.094-2.263 2.873-6.282 2.338-12.057v0l-0.086-0.926c-0.057-0.256-0.099-0.53-0.126-0.822v0l-0.657-4.93c-0.274-1.876-1.026-3.778-2.256-5.706v0c-0.585-0.964-1.321-1.726-2.21-2.286-0.889-0.56-1.791-0.798-2.708-0.714v0c-0.392 0.036-0.308 3.071 0.251 9.106v0c0.646 6.977 1.405 13.039 2.277 18.187v0l0.036 0.931 0.208 0.081zM131.553 29.427c-0.58 0.088-0.955-0.202-1.124-0.871v0l-0.097-0.632c0.008-0.17-0.005-0.367-0.039-0.591v0l-0.228-0.168c0.154-0.718 0.181-1.4 0.082-2.046v0c-0.114-0.745-0.322-1.805-0.626-3.182v0l-0.589-3.197c-0.246-1.615-0.57-4.047-0.97-7.297v0c-0.308-2.907-0.615-5.362-0.921-7.366v0l-0.543-2.901c-0.199-0.86-0.38-1.827-0.544-2.901v0c-0.073-0.481-0.011-0.845 0.188-1.091 0.192-0.245 0.532-0.405 1.02-0.479v0c0.323-0.049 0.598 0.007 0.824 0.167v0c0.064 0.024 0.542 0.018 1.434-0.016v0c0.826-0.025 1.543 0.014 2.152 0.117v0c0.65 0.103 0.997 0.3 1.041 0.59v0c0.049 0.323-0.211 0.693-0.781 1.111v0c-1.939-0.332-3.297-0.438-4.075-0.32v0l-0.194 0.323c0.078 0.292 0.201 0.988 0.369 2.088v0c0.212 1.391 0.369 2.641 0.471 3.752v0c0.14 1.139 0.316 2.403 0.528 3.794v0c0.138 0.903 0.434 1.32 0.888 1.25v0l0.765-0.157c0.259-0.073 0.533-0.132 0.823-0.176v0c1.259-0.192 1.932 0.002 2.021 0.582v0c0.054 0.356 0.021 0.668-0.1 0.936-0.128 0.269-0.353 0.428-0.676 0.477v0c-0.488 0.074-0.88-0.001-1.177-0.225v0l-1.589-0.001-0.247 0.038-0.201 0.274 0.023 0.148c0.15 0.544 0.378 1.817 0.683 3.82v0c0.193 1.265 0.352 2.418 0.477 3.458v0l0.476 3.458c0.192 1.259 0.439 2.546 0.741 3.862v0c0.146 0.74 0.383 1.209 0.71 1.409 0.326 0.193 0.878 0.23 1.656 0.112v0l0.862-0.182c0.286-0.071 0.607-0.133 0.963-0.187v0c0.942-0.144 1.445-0.008 1.509 0.407v0c0.089 0.587-0.578 0.988-2.001 1.206v0zM151.938 25.764l-0.726-0.106c-0.471-0.339-1.113-1.361-1.925-3.066-0.819-1.703-1.652-3.639-2.498-5.806v0c-0.636-1.775-1.377-3.512-2.223-5.21v0c-0.715-1.527-1.249-2.255-1.601-2.183v0l-0.147 0.03c-0.705 0.145-1.012 0.442-0.919 0.893v0c0.474 2.312 1.322 5.799 2.544 10.462v0c0.723 2.86 1.215 4.514 1.478 4.965v0l-0.225 0.893-0.676 0.139-0.46-0.304c-3.55-14.714-5.878-24.767-6.985-30.161v0c-0.072-0.353-0.108-0.645-0.108-0.877 0-0.231 0.062-0.462 0.185-0.691v0c0.085-0.249 0.288-0.406 0.607-0.472v0c1.633-0.335 3.027-0.206 4.184 0.388 1.164 0.598 1.901 1.652 2.21 3.16v0l0.721 3.517c0.125 0.607 0.09 1.465-0.105 2.573-0.188 1.107-0.435 2.144-0.739 3.112v0l-0.38 1.334c0.688 1.56 1.99 4.359 3.907 8.396 1.917 4.037 2.948 6.174 3.092 6.409v0c0.039 0.026 0.099 0.099 0.177 0.219 0.073 0.121 0.217 0.292 0.432 0.514v0c0.314 0.405 0.505 0.768 0.57 1.087v0c0.092 0.451-0.038 0.712-0.39 0.785zM141.76 8.395c0.607-0.125 1.09-0.543 1.447-1.256 0.352-0.705 0.573-1.567 0.663-2.586v0c0.114-2.065 0.052-3.676-0.184-4.832v0c-0.151-0.738-0.316-1.341-0.494-1.808-0.176-0.461-0.418-0.945-0.727-1.453v0c-0.616-1.044-1.645-1.418-3.088-1.122v0c-0.157 0.032-0.256 0.195-0.298 0.489-0.042 0.294-0.033 0.585 0.026 0.873v0c0.441 2.149 0.871 4.081 1.292 5.799v0c0.389 1.73 0.804 3.67 1.245 5.818v0zM161.071 22.494c-0.728 0.193-1.199 0.148-1.411-0.133v0c-0.155 0.041-0.276 0.09-0.365 0.148v0l-0.377 0.1c-0.696 0.184-1.183 0.144-1.459-0.121v0c-0.06-0.226 0.016-0.449 0.226-0.67v0l0.178-0.305 1.372-0.364 0.145-0.235-0.018-0.46-0.103-0.583c-0.51-1.927-1.015-3.638-1.514-5.134v0l-0.562-1.734-1.013-3.435c-0.328-1.237-0.77-3.103-1.326-5.597v0l-1.362-5.536c-0.636-2.404-1.203-4.219-1.701-5.446v0c-0.307-0.015-0.793 0.065-1.457 0.241v0l-0.511 0.177c-0.178 0.082-0.38 0.152-0.606 0.212v0c-0.599 0.159-0.97-0.029-1.112-0.565v0c-0.034-0.129 0.074-0.292 0.326-0.489 0.249-0.204 0.471-0.332 0.664-0.383v0c1.199-0.317 2.418-0.571 3.657-0.761v0c0.737-0.161 1.503-0.212 2.297-0.153v0c0.617 0.037 0.971 0.229 1.064 0.577v0c0.017 0.064 0.006 0.205-0.033 0.423v0l-1.07 0.376c-0.275-0.127-0.761-0.099-1.456 0.085v0l-0.194 0.207c0.165 0.26 0.432 1.086 0.801 2.477v0c0.553 2.088 1.039 3.977 1.458 5.666v0l1.398 5.671c0.377 1.424 0.895 3.135 1.555 5.133v0c0.707 2.282 1.216 4.009 1.527 5.182v0l0.163 0.619c0.026 0.228 0.085 0.515 0.177 0.863v0c0.193 0.728 0.359 1.16 0.498 1.296v0l-0.025 0.1c0.085 0.322 0.476 0.391 1.172 0.207v0c0.284-0.075 0.518-0.154 0.703-0.238v0l0.705-0.187c0.922-0.244 1.44-0.147 1.557 0.291v0c0.077 0.29 0.042 0.548-0.106 0.773-0.141 0.223-0.369 0.377-0.685 0.461v0c-0.284 0.075-0.547 0.11-0.789 0.105v0c-0.26 0.034-0.532 0.089-0.815 0.164v0c-0.193 0.051-0.459 0.208-0.797 0.47v0c-0.331 0.288-0.59 0.456-0.776 0.505zM179.82 17.245c-0.464 0.147-0.776 0.187-0.938 0.12-0.161-0.068-0.345-0.327-0.552-0.78v0c-1.009-2.184-1.632-3.549-1.869-4.096v0l-0.833-1.792c-0.737 0.059-1.543 0.228-2.42 0.507v0l-1.707 0.438c-0.778 0.149-1.338 0.279-1.682 0.388v0c-0.191 0.061-0.278 0.172-0.261 0.335v0c0.03 0.095 0.03 0.148-0.002 0.158v0l0.202 0.964c0.152 0.567 0.338 1.746 0.558 3.537v0c0.114 0.887 0.135 1.601 0.062 2.142v0c-0.078 0.612-0.225 0.953-0.441 1.022v0c-0.191 0.061-0.421 0.039-0.692-0.063-0.271-0.103-0.436-0.25-0.497-0.441v0l-0.007-0.155 0.005-0.148c-0.14-2.397-0.369-4.748-0.689-7.053v0l-0.362-3.085-0.568-3.734c0 0-0.156-1.084-0.468-3.251v0c-0.116-0.893-0.268-2.339-0.455-4.336v0c-0.236-2.261-0.431-3.798-0.584-4.609v0c0.001-0.105-0.122-0.703-0.371-1.792v0c-0.251-1.228-0.417-2.137-0.5-2.727v0c-0.17-0.841-0.226-1.338-0.169-1.489v0l0.324-0.103c0.103-0.005 0.219-0.028 0.346-0.068v0c0.375-0.119 0.625-0.3 0.751-0.543v0c0.222-0.071 0.442-0.063 0.657 0.022 0.216 0.085 0.354 0.223 0.415 0.414v0c0.475 1.493 1.128 3.174 1.961 5.043v0c0.444 0.957 0.802 1.753 1.073 2.386v0c1.624 3.919 4.899 11.195 9.827 21.829v0l0.046 0.143c0.099 0.311 0.046 0.584-0.16 0.817zM174.52 9.654l0.467-0.149c-1.74-4.393-4.44-10.838-8.1-19.334v0l1.441 13.309c0.43 3.816 0.793 6.191 1.09 7.125v0c0.051 0.159 0.686 0.111 1.906-0.145 1.228-0.251 2.294-0.519 3.196-0.806z" opacity="1" transform="matrix(1,0,0,1,0,0)" fill="#6d285f" class="wordmark-text-0" data-fill-palette-color="primary" id="text-0"></path></svg></g></svg></g></svg></g></svg></g><g transform="matrix(1,0,0,1,78.7882420320158,0)"><svg viewBox="0 0 86.85487593596837 70.01661065451529" height="70.01661065451529" width="86.85487593596837"><g><svg xmlns="http://www.w3.org/2000/svg" xmlns:xlink="http://www.w3.org/1999/xlink" version="1.1" x="0" y="0" viewBox="5 13.724 90 72.55199999999999" enable-background="new 0 0 100 100" xml:space="preserve" height="70.01661065451529" width="86.85487593596837" class="icon-icon-0" data-fill-palette-color="accent" id="icon-0"><g fill="#ef85d1" data-fill-palette-color="accent"><path d="M33.371 45.261c0.508 0 0.919-0.41 0.919-0.918v-4.824c0-0.508-0.411-0.919-0.919-0.919s-0.919 0.411-0.919 0.919v4.824C32.452 44.851 32.863 45.261 33.371 45.261z" fill="#ef85d1" data-fill-palette-color="accent"></path><path d="M46.214 37.602c0.18 0.18 0.415 0.27 0.651 0.27 0.233 0 0.47-0.09 0.648-0.27 0.359-0.358 0.359-0.94 0-1.299l-3.411-3.414c-0.359-0.358-0.941-0.358-1.299 0-0.36 0.359-0.36 0.94 0 1.3L46.214 37.602z" fill="#ef85d1" data-fill-palette-color="accent"></path><path d="M19.897 37.874c0.236 0 0.472-0.089 0.651-0.271l3.397-3.414c0.358-0.358 0.356-0.941-0.003-1.299-0.359-0.358-0.942-0.357-1.3 0.004l-3.397 3.413c-0.358 0.358-0.356 0.942 0.003 1.3C19.427 37.785 19.663 37.874 19.897 37.874z" fill="#ef85d1" data-fill-palette-color="accent"></path><path d="M72.424 54.881c-4.273 0-11.511 0.684-15.485 1.959l1.889-8.48c1.852-2.305 2.967-5.225 2.967-8.402 0-7.424-6.038-13.464-13.461-13.464-0.523 0-1.032 0.046-1.49 0.105-0.307-7.151-6.221-12.875-13.447-12.875-7.226 0-13.138 5.724-13.445 12.875-0.458-0.06-0.968-0.105-1.491-0.105C11.039 26.493 5 32.533 5 39.957c0 3.168 1.11 6.083 2.953 8.388l7.873 35.278 0.396 0.11c0.091 0.027 9.149 2.543 17.174 2.543 8.023 0 17.085-2.516 17.175-2.543l0.397-0.11 0.822-3.689c0.225 0.23 0.514 0.464 0.884 0.697 4.834 3.283 13.189 4.992 19.75 4.992 10.587 0 19.488-4.544 21.831-10.843l0.004 0.007 0.016-0.063C95 72.936 95 70.803 95 70.25 95 61.776 84.873 54.881 72.424 54.881zM18.459 27.871c0.754 0 1.471 0.107 2.073 0.212l0.807 0.14v-0.818c0-0.068-0.008-0.139-0.022-0.223 0-6.662 5.419-12.079 12.079-12.079 6.662 0 12.082 5.417 12.078 12.092l-0.019 1.028 0.807-0.14c0.602-0.104 1.317-0.212 2.071-0.212 6.661 0 12.081 5.422 12.081 12.086 0 3.197-1.259 6.104-3.299 8.266-0.089 0.097-0.174 0.197-0.268 0.291-0.185 0.183-0.384 0.355-0.581 0.527-0.111 0.099-0.223 0.2-0.339 0.294-0.197 0.16-0.401 0.309-0.607 0.456-0.131 0.094-0.264 0.187-0.398 0.274-0.203 0.131-0.409 0.257-0.618 0.375-0.156 0.09-0.312 0.173-0.472 0.255-0.2 0.104-0.402 0.203-0.61 0.295-0.186 0.082-0.374 0.155-0.563 0.229-0.192 0.071-0.384 0.147-0.581 0.212-0.222 0.071-0.447 0.133-0.674 0.19-0.177 0.046-0.349 0.096-0.529 0.136-0.271 0.058-0.546 0.099-0.822 0.137-0.144 0.021-0.283 0.05-0.43 0.068-0.426 0.043-0.855 0.069-1.29 0.069-2.531 0-4.973-0.802-7.063-2.319l-0.405-0.295-0.405 0.295c-2.088 1.518-4.576 2.274-7.063 2.274-1.243 0-2.486-0.188-3.68-0.567-1.194-0.38-2.339-0.949-3.383-1.707l-0.406-0.295-0.405 0.295c-1.567 1.137-3.333 1.873-5.185 2.171-0.618 0.099-1.246 0.148-1.878 0.148-0.435 0-0.865-0.026-1.292-0.071-0.141-0.017-0.278-0.045-0.418-0.063-0.28-0.04-0.561-0.083-0.836-0.141-0.173-0.04-0.341-0.088-0.512-0.133-0.233-0.061-0.465-0.122-0.694-0.197-0.189-0.061-0.375-0.133-0.561-0.204-0.197-0.076-0.393-0.152-0.586-0.239-0.2-0.087-0.394-0.185-0.588-0.283-0.168-0.085-0.334-0.176-0.498-0.269-0.201-0.117-0.4-0.236-0.593-0.361-0.146-0.096-0.288-0.198-0.43-0.299-0.197-0.14-0.392-0.281-0.58-0.434-0.127-0.103-0.25-0.215-0.373-0.323-0.187-0.165-0.377-0.327-0.554-0.502-0.099-0.101-0.188-0.209-0.284-0.31-2.028-2.16-3.281-5.058-3.281-8.247C6.378 33.293 11.797 27.871 18.459 27.871zM40.865 51.11c1.785 1.204 3.788 1.93 5.877 2.181L42.645 84.03c-1.652 0.276-3.458 0.527-5.301 0.685l1.392-32.467C39.47 51.93 40.189 51.565 40.865 51.11zM25.928 51.11c0.641 0.433 1.318 0.784 2.014 1.093l1.39 32.502c-1.846-0.166-3.65-0.417-5.301-0.695l-4.091-30.708C22.068 53.062 24.111 52.336 25.928 51.11zM9.791 50.251c0.36 0.303 0.739 0.579 1.125 0.842 0.034 0.022 0.069 0.043 0.104 0.066 0.309 0.204 0.625 0.398 0.949 0.575 0.083 0.045 0.168 0.088 0.252 0.133 0.279 0.146 0.562 0.284 0.85 0.411 0.118 0.05 0.238 0.101 0.359 0.147 0.262 0.107 0.527 0.204 0.797 0.295 0.143 0.046 0.285 0.093 0.429 0.136 0.259 0.075 0.522 0.141 0.786 0.201 0.152 0.035 0.305 0.071 0.459 0.102 0.281 0.056 0.565 0.096 0.852 0.132 0.138 0.018 0.275 0.041 0.415 0.054 0.427 0.043 0.858 0.066 1.292 0.066 0.035 0 0.068-0.008 0.103-0.009l4.044 30.354c-2.684-0.501-4.781-1.022-5.617-1.244L9.791 50.251zM30.714 84.809l-1.37-32.07c2.592 0.814 5.392 0.836 7.989 0.047l-1.372 32.03c-0.858 0.052-1.719 0.083-2.565 0.083C32.511 84.898 31.612 84.866 30.714 84.809zM49.803 82.513c-0.848 0.224-2.993 0.76-5.734 1.266l4.05-30.383c0.072 0 0.143 0.016 0.215 0.016 0.435 0 0.864-0.023 1.293-0.066 0.137-0.013 0.272-0.036 0.408-0.054 0.289-0.036 0.577-0.076 0.861-0.132 0.149-0.028 0.296-0.066 0.444-0.098 0.27-0.062 0.538-0.13 0.805-0.209 0.137-0.039 0.272-0.084 0.409-0.129 0.278-0.091 0.552-0.192 0.822-0.301 0.112-0.048 0.223-0.091 0.333-0.139 0.3-0.131 0.595-0.275 0.885-0.428 0.073-0.037 0.147-0.073 0.22-0.115 0.339-0.184 0.668-0.386 0.99-0.601 0.021-0.015 0.043-0.026 0.063-0.041 0.387-0.262 0.765-0.536 1.125-0.841L49.803 82.513zM72.424 84.245c-6.861 0-16.186-2.033-20.301-5.801l0.785-3.526c0.394 0.443 0.916 0.831 1.654 1.062 0.372 0.112 0.932 0.286 1.594 0.286 1.598 0 2.965-0.997 4.067-2.965 0.095-0.168 0.622-1.002 1.806-1.002 0.267 0 0.553 0.041 0.851 0.123 1.671 0.467 1.696 1.902 1.694 2.063-0.041 1.547 0.682 4.625 3.706 5.187 0.45 0.083 0.884 0.126 1.288 0.126 3.197 0 4.153-2.526 4.719-4.02 0.266-0.698 1.258-1.446 2.307-1.446 0.883 0 1.64 0.53 2.192 1.533l0.163 0.304c0.604 1.138 1.616 3.04 3.875 3.04 0.52 0 1.079-0.104 1.663-0.313 3.579-1.272 3.226-4.525 3.093-5.749-0.149-1.368 0.054-3.091 1.869-3.529 1.528-0.373 3.059 1.519 3.907 3.241C92.209 79.366 83.268 84.245 72.424 84.245zM93.62 70.62c-0.982-1.371-2.643-2.793-4.496-2.34-2.143 0.517-3.205 2.346-2.914 5.014 0.178 1.644 0.171 3.467-2.185 4.304-0.436 0.156-0.838 0.233-1.201 0.233-1.324 0-1.985-1.044-2.657-2.308l-0.172-0.321c-0.799-1.452-2.008-2.249-3.401-2.249-1.542 0-3.088 1.003-3.647 2.473-0.546 1.443-1.361 3.457-4.415 2.892-2.618-0.486-2.582-3.663-2.579-3.792 0.03-0.917-0.495-2.815-2.702-3.432-0.418-0.115-0.828-0.175-1.221-0.175-1.514 0-2.546 0.882-3.008 1.707-0.853 1.522-1.79 2.262-2.865 2.262-0.454 0-0.86-0.126-1.186-0.227-0.949-0.294-1.371-0.973-1.615-1.751l0.843-3.779 0 0 0.485-2.179 1.908-8.559c3.501-1.377 11.472-2.135 15.832-2.135 11.688 0 21.198 6.276 21.198 13.991C93.622 70.373 93.62 70.494 93.62 70.62z" fill="#ef85d1" data-fill-palette-color="accent"></path><path d="M62.056 62.203c0 2.29 4.605 3.489 9.153 3.489 4.549 0 9.153-1.199 9.153-3.489C80.362 57.619 62.056 57.619 62.056 62.203zM71.209 64.386c-4.717 0-7.846-1.313-7.846-2.183 0-0.87 3.129-2.187 7.846-2.187 4.718 0 7.846 1.316 7.846 2.187C79.055 63.072 75.927 64.386 71.209 64.386z" fill="#ef85d1" data-fill-palette-color="accent"></path></g></svg></g></svg></g><g></g></svg></g></svg></g><g><path d="M118.127 30.889A122.216 122.216 0 0 1 277.393 30.889L269.273 30.889A114.096 114.096 0 0 0 126.247 30.889L118.127 30.889M118.127 216.311A122.216 122.216 0 0 0 277.393 216.311L269.273 216.311A114.096 114.096 0 0 1 126.247 216.311L118.127 216.311" fill="#6d285f" stroke="transparent" data-fill-palette-color="tertiary"></path></g></svg></g><defs></defs></svg><rect width="395.52" height="247.2" fill="none" stroke="none" visibility="hidden"></rect></g></svg></g></svg>